<?xml version="1.0" standalone="no"?>
<!DOCTYPE svg PUBLIC "-//W3C//DTD SVG 20010904//EN"
 "http://www.w3.org/TR/2001/REC-SVG-20010904/DTD/svg10.dtd">
<svg version="1.0" xmlns="http://www.w3.org/2000/svg"
 width="1280.000000pt" height="853.000000pt" viewBox="0 0 1280.000000 853.000000"
 preserveAspectRatio="xMidYMid meet">

<g transform="translate(0.000000,853.000000) scale(0.100000,-0.100000)"
fill="#000000" stroke="none">
<path d="M6585 8012 c-44 -14 -83 -30 -86 -34 -3 -5 -13 -6 -21 -3 -9 4 -18 3
-21 -2 -3 -4 -36 -7 -74 -6 -182 4 -221 3 -263 -10 -84 -27 -129 -49 -135 -66
-3 -10 -29 -28 -58 -40 -103 -45 -119 -56 -191 -125 -84 -82 -118 -145 -124
-227 -4 -49 -10 -64 -48 -110 -148 -182 -166 -222 -166 -359 0 -65 -4 -100
-13 -110 -25 -28 -28 -64 -6 -84 12 -11 21 -31 21 -46 0 -53 23 -140 41 -156
16 -14 19 -14 19 -3 0 8 -5 20 -11 26 -6 6 -9 23 -7 39 4 28 5 27 27 -20 14
-29 21 -59 18 -74 -3 -15 0 -36 6 -47 6 -11 10 -57 9 -102 -1 -45 2 -85 7 -87
5 -3 9 -34 10 -68 1 -66 11 -125 56 -343 8 -38 15 -71 15 -72 0 -11 -27 2 -66
32 -58 44 -84 46 -84 5 0 -28 -2 -29 -32 -23 -47 9 -58 -13 -58 -119 0 -61 6
-108 20 -151 11 -34 31 -122 45 -194 15 -85 36 -156 55 -198 17 -36 33 -79 36
-95 10 -48 26 -54 78 -31 24 12 47 25 51 30 3 5 18 12 35 16 40 9 41 21 15
210 -4 28 -9 60 -10 72 -2 15 1 20 11 16 9 -3 14 2 14 15 0 12 4 23 8 26 4 2
4 51 -1 108 -16 197 6 406 52 496 33 64 112 114 98 63 -3 -12 1 -22 9 -25 23
-9 17 -46 -7 -46 -12 0 -17 -4 -14 -11 4 -6 13 -8 21 -5 8 3 14 1 14 -5 0 -14
26 12 28 28 1 7 3 20 4 28 1 8 5 12 9 9 4 -2 26 13 48 33 22 21 46 39 53 40 7
1 23 5 36 9 13 4 22 2 22 -5 0 -6 7 -11 15 -11 22 0 47 -61 33 -78 -6 -7 -17
-11 -24 -8 -7 3 -28 -10 -46 -28 -18 -18 -43 -36 -56 -40 -12 -4 -22 -13 -22
-20 0 -7 -19 -31 -42 -52 -66 -61 -87 -107 -85 -187 1 -70 3 -73 27 -57 9 6
17 5 21 -2 6 -9 11 -9 22 0 11 9 19 7 38 -11 13 -12 35 -22 49 -22 17 0 29 -8
38 -27 7 -16 21 -28 30 -28 9 0 47 -11 83 -24 53 -18 88 -23 176 -24 107 -1
157 -6 198 -19 11 -4 28 -6 38 -4 11 1 17 -4 17 -19 0 -12 4 -18 10 -15 6 3 7
-1 4 -9 -4 -9 1 -18 10 -22 9 -3 13 -10 10 -15 -3 -5 0 -9 6 -9 15 0 5 -61
-12 -71 -7 -5 -21 -9 -30 -9 -10 0 -18 -5 -18 -11 0 -5 -5 -7 -10 -4 -6 3 -13
-1 -16 -9 -3 -9 -11 -16 -18 -16 -6 0 -17 -9 -24 -20 -7 -11 -8 -20 -2 -20 5
0 7 -6 5 -12 -2 -7 -6 -27 -9 -45 -4 -29 -25 -78 -26 -60 0 4 -18 -2 -40 -13
-37 -19 -44 -18 -41 2 0 4 -6 5 -14 2 -9 -4 -21 -1 -29 5 -7 6 -16 8 -20 4
-11 -11 -166 -13 -166 -2 0 5 -12 14 -26 19 -14 6 -28 19 -31 30 -5 18 -21 24
-60 23 -7 -1 -10 4 -6 11 16 25 11 40 -6 17 -14 -18 -20 -21 -26 -11 -6 9 -4
11 5 5 10 -6 12 -4 7 8 -4 10 -1 17 5 17 6 0 9 3 6 6 -4 3 -15 1 -25 -4 -19
-10 -46 -5 -39 7 10 16 -40 6 -52 -11 -7 -10 -17 -16 -22 -13 -16 10 -31 -35
-34 -103 -2 -44 -7 -66 -14 -64 -11 2 -16 -10 -13 -30 4 -37 13 -74 20 -87 5
-9 9 -19 9 -24 1 -4 3 -26 7 -50 3 -23 7 -64 10 -92 4 -52 40 -262 51 -299 5
-17 4 -19 -7 -8 -27 26 -34 12 -34 -65 -1 -81 -8 -129 -26 -175 -6 -15 -9 -34
-6 -43 4 -8 2 -17 -4 -20 -5 -4 -7 -10 -4 -15 3 -4 -1 -20 -9 -35 -8 -14 -13
-40 -12 -55 2 -26 -9 -40 -31 -40 -3 0 -3 38 0 85 3 47 3 85 -2 85 -11 0 -56
-50 -83 -95 -29 -47 -88 -218 -88 -255 0 -14 7 -38 15 -54 17 -32 20 -112 5
-121 -11 -7 -8 -54 5 -74 3 -6 -1 -14 -11 -18 -15 -6 -14 -7 5 -15 19 -6 22
-13 17 -33 -4 -14 -2 -25 4 -25 5 0 10 -5 10 -10 0 -7 -13 -8 -35 -4 -28 5
-35 3 -35 -10 0 -9 9 -21 20 -28 28 -18 25 -45 -5 -52 -43 -11 -19 -23 34 -18
39 3 57 0 85 -18 51 -31 45 -40 -15 -25 l-52 14 -28 -31 c-16 -16 -29 -41 -29
-55 0 -14 -4 -21 -10 -18 -21 13 -21 -25 0 -53 19 -25 66 -48 91 -44 4 1 15
-8 25 -19 15 -17 16 -22 5 -29 -8 -4 -15 -21 -17 -36 -2 -16 -8 -30 -14 -32
-5 -2 -10 -10 -10 -18 0 -17 -31 -19 -47 -3 -18 18 -45 2 -41 -23 2 -18 -4
-24 -32 -30 -71 -17 -159 -18 -174 -2 -9 8 -27 14 -42 12 -15 -2 -29 3 -31 10
-3 8 8 12 39 12 32 0 46 5 55 19 11 17 9 20 -17 26 -61 13 -66 65 -6 65 39 0
66 8 66 20 0 5 -28 26 -62 48 -64 40 -110 82 -90 82 6 0 14 -5 18 -11 3 -6 29
-22 57 -35 38 -17 54 -20 64 -12 17 14 16 37 -2 44 -23 9 -18 39 10 54 14 7
25 19 25 27 0 7 3 13 8 13 4 0 8 20 10 45 1 30 -2 44 -9 43 -22 -5 -20 19 2
25 16 4 20 11 16 26 -3 11 -1 21 3 23 5 2 11 28 14 58 3 30 9 74 12 97 5 35 3
43 -16 53 -11 6 -31 10 -43 8 -18 -2 -21 -9 -19 -30 3 -22 -1 -28 -16 -28 -11
0 -22 7 -26 15 -3 8 -10 15 -16 15 -14 0 -40 -25 -40 -38 0 -14 -26 -22 -37
-11 -18 18 -143 -64 -143 -93 0 -9 -3 -9 -9 1 -8 12 -14 12 -37 -4 -15 -10
-39 -31 -52 -47 -17 -20 -30 -27 -43 -23 -13 4 -30 -3 -50 -19 -17 -14 -39
-26 -50 -26 -29 0 -59 -18 -59 -35 0 -10 10 -15 29 -15 20 0 31 -6 34 -17 3
-13 5 -12 6 5 1 20 6 23 34 20 32 -3 32 -4 32 -55 1 -37 -3 -53 -12 -53 -7 0
-13 6 -13 14 0 20 -14 28 -35 20 -11 -4 -15 -16 -13 -34 2 -27 -16 -60 -33
-60 -5 0 -9 11 -9 24 0 31 -26 41 -40 16 -10 -19 -39 -28 -41 -12 -5 51 -26
102 -42 102 -7 0 -24 -8 -37 -17 -14 -10 -37 -25 -52 -33 -38 -21 -187 -100
-223 -118 -16 -8 -37 -20 -45 -26 -8 -7 -33 -18 -55 -25 -92 -31 -88 -28 -69
-56 16 -24 15 -25 -5 -25 -14 0 -21 6 -21 20 0 27 -30 26 -64 -1 -22 -17 -24
-24 -15 -35 15 -18 5 -28 -43 -44 -41 -12 -45 -19 -26 -38 10 -10 10 -15 -2
-22 -8 -5 -23 -10 -32 -10 -12 0 -18 -8 -18 -24 0 -30 -11 -39 -89 -66 -73
-25 -136 -65 -136 -86 0 -7 -4 -14 -8 -14 -52 -1 -57 1 -62 23 -9 35 -37 48
-60 29 -16 -12 -17 -14 -3 -9 27 9 32 -12 9 -34 -12 -11 -21 -25 -21 -31 0 -6
11 -1 25 12 l24 23 28 -33 c41 -48 48 -61 61 -104 13 -45 12 -49 -12 -40 -11
4 -15 13 -11 25 5 14 1 19 -11 19 -22 0 -43 29 -44 58 0 37 -25 20 -26 -19 -1
-19 -3 -38 -4 -44 -1 -5 -1 -20 0 -32 1 -13 -8 -42 -19 -65 -10 -24 -30 -69
-42 -101 -13 -31 -27 -56 -32 -54 -11 3 -11 2 -2 61 4 27 14 61 21 75 15 29
18 51 6 51 -13 0 -62 -50 -62 -65 0 -7 -9 -17 -20 -20 -11 -3 -27 -13 -35 -21
-13 -14 -15 -12 -15 12 l0 27 -22 -29 c-13 -15 -46 -73 -73 -128 -43 -86 -54
-101 -73 -100 -20 1 -23 -3 -19 -23 2 -13 0 -26 -4 -29 -5 -3 -9 1 -9 9 0 8
-7 21 -16 28 -15 13 -16 11 -10 -21 12 -66 14 -100 6 -100 -10 0 -26 33 -29
62 -1 14 -51 -42 -51 -58 0 -7 -7 -14 -15 -18 -8 -3 -15 -12 -15 -21 0 -8 -10
-32 -23 -53 -12 -20 -34 -58 -47 -85 -14 -26 -28 -47 -32 -47 -11 0 -10 48 1
55 5 3 13 20 16 38 4 17 20 58 36 91 17 32 28 63 26 69 -6 19 -187 -281 -187
-311 0 -6 14 -13 31 -17 17 -4 33 -13 35 -19 3 -7 -6 -39 -20 -71 -15 -32 -26
-64 -26 -71 0 -8 -6 -14 -14 -14 -8 0 -17 -11 -20 -25 -4 -14 -17 -32 -31 -41
-23 -15 -27 -15 -50 0 -25 16 -25 16 -25 -16 0 -18 4 -39 9 -47 5 -7 6 -22 3
-33 -4 -15 -7 -17 -13 -6 -5 7 -6 -32 -4 -87 3 -60 1 -111 -6 -127 -8 -19 -8
-32 1 -48 10 -18 9 -21 -5 -18 -12 2 -21 -10 -32 -41 -12 -35 -12 -55 -3 -111
11 -64 10 -69 -14 -104 -26 -38 -27 -45 -46 -261 -8 -98 -7 -131 5 -180 24
-98 15 -205 -18 -205 -5 0 -6 -24 -3 -57 17 -161 17 -171 2 -217 -9 -26 -16
-49 -16 -51 0 -3 732 -5 1626 -5 1445 0 1625 2 1614 15 -10 13 -9 15 8 15 11
0 27 -7 36 -15 20 -21 43 -21 26 0 -10 13 -9 15 10 15 13 0 32 -8 42 -17 18
-16 18 -16 12 1 -6 16 -4 17 17 11 57 -19 258 -28 276 -13 9 7 17 7 26 0 17
-14 97 -10 97 4 0 16 34 23 55 12 13 -8 14 -12 5 -18 -7 -4 78 -8 189 -9 188
0 202 1 196 17 -4 9 -10 26 -13 36 -5 18 -3 18 26 -3 35 -24 44 -11 17 25 -20
26 -19 34 5 34 33 0 58 -34 56 -74 l-1 -36 64 0 c51 0 62 3 53 12 -22 22 -14
56 15 65 l27 9 -26 25 c-14 13 -36 31 -48 40 -18 12 -21 19 -13 33 5 10 8 29
5 42 -3 19 -11 24 -33 24 -22 0 -27 -3 -22 -17 5 -12 1 -11 -15 5 -12 12 -27
22 -33 22 -5 0 -27 11 -47 25 -45 31 -49 31 -54 0 -3 -16 4 -37 20 -60 32 -44
25 -53 -14 -17 -16 15 -34 28 -39 29 -13 3 -18 30 -9 51 4 9 9 31 11 47 2 17
11 36 20 43 10 7 12 12 5 12 -8 0 -10 9 -7 23 5 19 -1 28 -29 47 -34 24 -46
52 -46 111 0 31 10 35 41 19 16 -9 19 -7 19 8 0 28 -26 48 -44 33 -11 -9 -15
-6 -20 14 -3 13 -1 33 5 44 10 14 9 27 -3 57 -9 22 -14 53 -11 69 2 17 5 47 6
67 1 31 4 35 17 25 8 -6 7 -2 -4 10 -17 20 -17 23 -3 29 25 9 31 43 11 65 -23
25 -10 37 16 14 24 -22 25 -18 4 25 -16 31 -16 34 0 45 9 7 16 19 16 28 0 9 4
19 10 22 15 10 4 100 -13 103 -16 3 -32 32 -18 32 5 0 11 16 13 35 2 19 0 35
-4 35 -4 0 -8 7 -8 15 0 23 28 18 52 -10 21 -24 66 -36 52 -14 -3 6 -1 15 6
19 10 6 7 18 -13 53 -27 46 -74 74 -62 36 9 -27 -20 -25 -39 3 -18 25 -22 118
-6 118 6 0 16 -11 22 -25 6 -13 20 -27 31 -31 16 -5 17 -8 6 -15 -11 -7 -9
-12 11 -26 35 -25 42 -23 46 15 4 38 -29 112 -50 112 -8 0 -24 15 -35 34 -17
26 -21 48 -20 102 1 38 7 76 14 84 7 8 15 34 19 57 3 23 11 54 17 70 l10 28
29 -32 c16 -18 30 -27 32 -22 8 24 98 -24 98 -52 0 -11 -48 -1 -70 15 -8 6 -4
-2 8 -18 12 -16 22 -37 22 -46 0 -10 7 -23 15 -30 9 -7 15 -27 15 -44 -1 -17
3 -49 9 -71 5 -22 11 -62 13 -90 2 -27 7 -56 11 -62 5 -7 4 -13 -2 -13 -5 0
-9 -22 -8 -49 0 -28 -5 -56 -11 -63 -6 -8 -14 -32 -17 -53 -8 -57 -8 -58 0
-77 5 -13 2 -18 -9 -18 -27 0 -18 -33 19 -72 34 -35 36 -36 63 -22 46 24 52
19 52 -41 0 -42 3 -55 15 -55 8 0 15 7 15 15 0 15 18 14 67 0 6 -2 13 8 15 22
l3 25 28 -22 c35 -28 46 -18 49 38 1 24 7 43 15 46 7 3 13 16 13 30 0 18 -8
27 -30 35 -27 9 -30 8 -30 -10 0 -32 -44 -21 -48 11 -2 14 -8 29 -13 34 -20
21 -7 28 14 8 13 -12 26 -22 30 -22 11 0 -29 74 -47 89 -20 17 -20 31 -1 31 8
0 14 5 13 12 -2 7 4 12 12 13 31 1 20 40 -12 42 -12 1 -24 6 -27 10 -3 4 -15
8 -26 8 -11 0 -19 5 -19 10 1 6 -7 19 -17 29 -22 22 -19 31 -24 -89 -4 -78 -3
-75 -16 -75 -7 0 -9 11 -6 27 3 16 -2 43 -12 64 -16 32 -16 37 -3 45 13 8 13
15 1 47 -7 20 -18 37 -24 38 -5 0 1 5 14 10 20 8 21 12 11 25 -15 18 -21 74
-8 74 5 0 5 8 -1 17 -7 13 -5 23 7 36 12 13 13 20 5 25 -7 4 -10 22 -8 39 3
21 -2 36 -14 47 -16 14 -17 21 -7 41 21 46 38 26 42 -49 5 -86 17 -123 32
-100 4 6 24 14 44 18 30 5 40 3 57 -15 11 -12 26 -19 34 -16 8 3 29 -7 46 -21
31 -26 31 -27 12 -39 -13 -8 -22 -9 -26 -3 -3 6 -11 10 -17 10 -7 0 -2 -9 10
-20 12 -11 28 -20 37 -20 9 0 18 -8 22 -17 9 -27 34 -53 50 -53 7 0 16 13 19
30 4 16 10 28 14 25 4 -3 13 2 20 10 7 9 21 13 30 10 12 -4 28 6 49 32 17 21
31 43 31 50 0 7 5 13 11 13 6 0 1 16 -11 35 -12 19 -19 39 -16 44 4 5 0 12 -6
14 -8 3 -6 6 5 6 10 1 15 5 12 11 -3 5 9 16 27 23 l33 13 -59 62 c-64 67 -95
83 -71 35 8 -15 12 -30 9 -35 -3 -4 2 -5 10 -2 27 10 18 -5 -14 -24 l-30 -19
20 -21 c25 -26 25 -32 2 -32 -19 0 -46 36 -37 50 3 5 -3 8 -14 7 -14 -1 -17
-5 -10 -13 5 -6 6 -20 2 -30 -5 -15 -7 -15 -12 -2 -5 12 -12 13 -29 7 l-24 -9
22 -27 c27 -35 9 -42 -29 -11 -35 27 -38 44 -13 78 9 14 18 34 19 45 0 11 4
30 8 43 6 18 4 22 -13 22 -11 0 -22 -8 -25 -19 -6 -23 -54 -36 -73 -20 -17 14
-18 51 -2 67 7 7 25 12 40 12 17 0 31 7 35 16 4 10 15 14 33 12 17 -1 37 5 49
16 13 12 21 14 21 7 0 -7 4 -9 10 -6 6 4 3 16 -7 32 -17 26 -17 26 5 21 12 -4
22 -2 22 3 0 5 9 9 19 9 12 0 27 -16 44 -47 21 -41 29 -48 58 -51 l34 -3 -47
44 c-26 24 -45 47 -41 51 3 3 -2 16 -13 29 -20 23 -54 80 -54 91 0 3 9 6 19 6
22 0 61 -44 61 -69 1 -21 20 -45 48 -60 49 -26 28 13 -24 46 -18 12 -18 12 3
19 13 3 20 11 16 16 -3 6 0 8 8 6 8 -3 26 4 42 14 l27 20 -22 18 c-17 14 -20
22 -12 30 14 14 44 -12 45 -38 0 -11 2 -12 6 -4 2 6 9 10 14 6 5 -3 9 -1 9 5
0 5 14 12 30 16 17 4 29 12 28 18 -2 7 2 13 7 14 6 2 10 -6 10 -17 0 -11 13
-32 29 -48 21 -20 27 -22 22 -9 -10 30 3 39 32 23 15 -7 41 -20 57 -27 17 -7
33 -15 36 -17 10 -5 8 48 -2 54 -5 3 -9 -2 -9 -10 0 -27 -16 -18 -71 39 -55
56 -77 100 -55 108 28 11 69 -7 87 -37 17 -28 17 -32 3 -43 -18 -13 -3 -26 21
-17 10 4 28 -2 45 -15 16 -11 32 -21 35 -21 12 0 4 21 -15 37 -11 10 -20 22
-20 27 0 5 8 2 18 -6 9 -9 22 -13 29 -11 7 2 18 -5 25 -16 7 -12 19 -21 26
-21 8 0 10 5 5 13 -4 6 5 4 19 -5 26 -17 26 -17 24 6 -2 13 -10 34 -19 47 -19
27 -22 59 -6 59 6 0 2 15 -10 35 -11 19 -18 41 -15 49 3 8 -2 26 -11 40 -23
35 -8 52 49 58 24 3 59 16 77 29 58 42 77 49 83 33 17 -44 73 39 62 92 -3 16
-2 36 4 44 8 12 14 9 39 -20 17 -19 30 -32 31 -29 1 14 -33 71 -45 75 -7 3
-15 23 -19 44 -7 46 -49 98 -100 125 -19 10 -41 30 -48 44 -15 31 -28 41 -48
41 -12 -1 -11 -3 3 -11 9 -5 17 -17 17 -26 0 -13 -8 -14 -47 -9 -27 4 -58 7
-69 7 -16 -1 -23 7 -27 27 -7 34 1 42 17 19 20 -26 37 -21 30 8 -5 22 -3 25
20 25 22 0 26 4 26 29 0 23 -8 34 -35 50 -20 11 -38 27 -41 36 -4 8 -12 15
-20 15 -8 0 -14 4 -14 9 0 5 -9 11 -20 14 -24 6 -28 47 -4 47 10 0 14 6 10 15
-3 8 -1 15 4 15 6 0 10 7 10 15 0 8 8 15 17 15 14 0 13 4 -6 24 -14 15 -24 41
-27 72 -3 27 -7 56 -11 64 -3 8 -5 35 -5 60 0 25 -6 54 -13 65 -16 26 -27 76
-27 123 0 21 -4 42 -8 47 -5 6 -16 30 -26 55 -35 89 -166 253 -185 232 -9 -9
-29 -194 -29 -263 0 -96 -28 -199 -90 -325 -33 -67 -67 -127 -75 -134 -8 -7
-15 -19 -15 -26 0 -8 -5 -14 -11 -14 -16 0 -51 -39 -66 -73 -7 -15 -20 -27
-28 -27 -9 0 -13 -5 -10 -10 3 -6 -1 -10 -9 -10 -8 0 -21 -8 -28 -17 -14 -19
-35 -23 -55 -10 -6 4 -18 0 -26 -8 -19 -18 -29 -19 -45 -3 -16 16 -90 27 -127
18 -21 -5 -45 0 -45 11 0 5 5 7 10 4 6 -3 10 -1 10 4 0 6 8 11 18 11 32 0 55
34 47 69 -4 20 -3 31 4 31 27 0 7 20 -30 30 -37 10 -40 13 -34 39 4 21 2 30
-9 34 -22 8 -20 57 2 73 13 11 14 16 4 22 -9 6 -4 24 23 76 19 37 35 74 35 82
0 8 9 23 20 34 15 15 18 25 11 38 -5 10 -8 27 -6 38 2 10 4 29 4 40 1 12 13
33 27 48 15 14 24 26 21 26 -6 0 8 16 98 114 30 32 55 65 55 72 0 21 -28 16
-40 -7 -10 -18 -18 -20 -59 -15 -52 6 -107 30 -133 56 -10 11 -26 16 -40 13
-19 -4 -27 2 -37 24 -10 19 -15 23 -18 13 -12 -41 -13 -41 -25 -31 -7 6 -24
20 -38 31 -24 18 -24 19 -3 15 14 -2 20 1 17 8 -6 16 36 43 45 28 4 -6 17 1
34 18 17 19 34 27 46 24 10 -3 22 1 26 8 6 8 4 10 -5 4 -8 -5 -11 -4 -7 2 4 6
31 10 62 9 36 -1 56 3 59 11 3 7 14 13 25 13 11 0 23 5 27 11 4 6 20 9 39 6
18 -3 38 0 44 6 7 7 18 7 36 -1 35 -16 45 -15 45 4 0 12 7 14 30 9 39 -9 39 9
-1 42 -18 15 -28 32 -25 40 4 8 3 20 -1 26 -4 7 -8 18 -9 26 -2 7 -12 20 -23
28 -13 8 -21 25 -21 42 0 27 -73 131 -91 131 -4 0 -22 12 -39 26 -28 24 -34
25 -56 14 -21 -12 -32 -9 -109 29 -87 43 -164 56 -188 32 -17 -17 -42 -13 -62
9 -14 15 -15 20 -4 21 8 1 23 2 34 3 11 1 32 3 47 4 25 2 27 5 24 45 -1 25
-12 57 -24 74 -28 39 -29 94 -3 110 26 16 16 57 -23 90 -17 14 -30 30 -29 34
2 5 -12 20 -31 34 -41 31 -87 32 -133 4 -28 -18 -37 -19 -43 -9 -7 11 -17 8
-47 -13 -61 -42 -97 -32 -71 20 8 16 28 31 50 39 51 18 95 59 81 76 -19 24
-10 121 17 174 14 27 28 50 32 52 3 2 12 24 20 49 7 25 19 48 26 50 6 3 12 11
12 19 0 8 5 23 12 34 10 15 9 23 -6 39 -11 12 -15 21 -10 21 5 0 2 5 -6 10
-10 7 -11 13 -4 18 5 4 20 23 32 44 23 37 38 47 83 54 42 7 72 -37 63 -93 -7
-47 8 -88 49 -135 30 -35 39 -36 27 -3 -12 32 3 32 24 0 10 -14 29 -31 44 -38
15 -6 29 -14 32 -18 13 -15 147 -39 219 -39 80 0 113 12 66 24 -16 4 -23 11
-19 18 4 6 -4 19 -17 29 l-23 17 24 10 c77 29 134 42 180 42 48 0 51 1 39 17
-13 16 -13 16 11 0 28 -19 56 -22 65 -7 12 20 -45 79 -109 115 -35 20 -67 43
-70 51 -4 12 -14 14 -36 9 -28 -6 -30 -5 -30 24 0 35 16 42 98 45 31 1 57 6
58 11 1 6 -14 23 -33 40 -32 26 -44 29 -111 31 -42 2 -101 6 -132 10 -30 3
-102 8 -160 9 -58 1 -112 5 -120 8 -63 23 -118 13 -144 -28 -11 -17 -22 -21
-40 -18 -14 3 -26 9 -26 14 0 5 -6 9 -14 9 -7 0 -19 6 -25 13 -6 8 -31 14 -55
15 -25 0 -51 4 -58 8 -7 5 -21 7 -31 6 -10 -2 -25 2 -33 8 -7 7 -23 10 -34 7
-11 -3 -23 -1 -26 4 -3 5 -16 7 -30 5 -13 -3 -24 0 -24 6 0 6 -9 8 -20 5 -14
-4 -20 0 -20 12 0 10 -12 27 -26 40 -16 14 -23 28 -20 38 4 9 1 23 -6 31 -11
13 -11 14 2 7 12 -7 11 -3 -3 18 -9 15 -14 27 -10 27 5 0 1 4 -6 9 -12 8 -11
13 9 29 13 11 30 18 36 15 8 -3 11 3 8 19 -2 13 -1 17 2 10 5 -10 10 -9 25 4
11 10 38 19 60 20 22 1 46 7 52 13 6 6 17 11 24 11 7 0 13 5 13 10 0 6 6 10
13 9 6 -1 20 1 30 6 10 4 23 2 32 -5 9 -7 23 -9 37 -4 13 4 29 7 36 5 7 -1 15
6 19 16 9 24 49 55 87 69 17 7 30 17 29 23 -2 6 6 11 17 11 10 0 23 7 28 16 6
11 11 13 16 5 10 -15 26 -14 26 2 0 13 44 57 57 57 4 0 17 10 28 23 29 33 81
68 89 59 4 -3 11 0 16 8 5 8 22 15 37 17 53 3 90 10 103 18 7 5 49 11 93 15
43 4 82 12 86 17 3 6 26 13 51 16 72 9 110 19 110 28 0 18 37 8 59 -15 18 -19
22 -32 17 -51 -5 -18 0 -35 14 -55 11 -15 20 -31 20 -35 0 -4 8 -19 19 -33 10
-15 27 -54 37 -87 10 -33 21 -62 24 -65 3 -3 6 -27 8 -55 4 -73 13 -127 24
-149 8 -14 7 -17 -4 -11 -7 4 -5 0 4 -10 9 -10 29 -19 45 -20 25 -1 27 -5 28
-38 0 -20 -5 -37 -11 -37 -15 0 -13 -28 3 -34 7 -3 13 -15 13 -26 0 -18 -3
-19 -21 -9 -15 8 -20 18 -16 35 2 14 -1 28 -8 32 -7 4 -15 14 -19 22 -3 8 -3
-1 0 -20 3 -19 7 -45 7 -57 1 -13 6 -23 12 -23 5 0 11 -10 12 -22 5 -65 14
-122 22 -136 10 -20 23 -106 26 -180 1 -29 4 -54 6 -56 12 -11 72 10 103 36
43 35 38 58 -5 27 -16 -11 -36 -18 -44 -15 -20 7 -19 72 1 151 8 33 19 74 23
91 5 18 12 38 17 45 5 8 7 24 5 37 -1 13 2 28 7 35 5 7 12 37 16 67 3 30 8 69
9 85 2 17 -1 40 -6 52 -7 16 -6 27 3 38 16 20 23 94 12 142 -5 21 -5 50 -1 64
8 33 -7 126 -27 157 -8 12 -15 39 -16 60 0 20 -9 53 -19 72 -10 19 -20 51 -23
70 -6 35 -40 79 -87 111 -22 15 -22 17 -7 41 9 14 33 43 53 64 51 54 88 130
87 179 -2 109 -5 125 -16 116 -8 -7 -20 7 -41 45 -16 30 -34 54 -40 54 -12 0
-55 61 -55 78 0 16 -100 112 -117 112 -18 0 -16 -15 3 -35 9 -9 13 -23 9 -33
-6 -16 -7 -16 -20 1 -7 10 -31 23 -52 28 -54 12 -61 11 -59 -8 2 -27 -31 -28
-39 -2 -5 14 -3 25 4 27 6 2 11 8 11 13 0 6 -5 7 -10 4 -6 -3 -13 1 -16 10 -5
11 -14 14 -33 10 -14 -3 -42 -1 -60 5 -24 7 -37 6 -42 -1 -7 -12 -76 -2 -85
12 -3 5 -16 9 -29 9 -13 0 -47 19 -77 42 -70 57 -117 88 -129 88 -5 0 -28 9
-49 20 -27 14 -65 22 -113 24 -39 2 -66 1 -59 -1 6 -3 12 -10 12 -16 -1 -7
-11 0 -23 14 -36 43 -66 52 -202 60 -71 4 -137 10 -145 13 -8 3 -51 -7 -95
-22z m1093 -291 c3 -8 -1 -12 -9 -9 -7 2 -15 10 -17 17 -3 8 1 12 9 9 7 -2 15
-10 17 -17z m-1828 -150 c0 -5 -7 -11 -15 -15 -15 -5 -20 5 -8 17 9 10 23 9
23 -2z m2263 -154 c-7 -11 -23 12 -23 33 1 12 4 11 15 -4 8 -10 12 -23 8 -29z
m-2613 -228 c0 -7 -10 -28 -22 -48 -18 -28 -23 -32 -26 -18 -5 26 18 77 34 77
8 0 14 -5 14 -11z m980 -999 c4 0 10 -6 13 -12 5 -16 -45 -19 -55 -4 -10 15 2
28 19 22 8 -3 18 -6 23 -6z m1586 -197 c-10 -10 -19 5 -10 18 6 11 8 11 12 0
2 -7 1 -15 -2 -18z m-511 -142 c37 -17 73 -47 64 -55 -2 -2 -38 14 -79 35 -54
28 -68 39 -50 39 14 0 43 -9 65 -19z m-1027 -55 c-3 -21 -52 -46 -64 -33 -4 4
-3 17 3 30 6 12 14 30 17 41 6 18 7 18 27 0 11 -10 19 -27 17 -38z m1012 -24
c22 -17 22 -18 2 -35 -11 -10 -31 -17 -44 -15 -24 3 -24 4 -11 36 15 37 22 39
53 14z m-260 -8 c0 -8 -4 -12 -10 -9 -5 3 -10 10 -10 16 0 5 5 9 10 9 6 0 10
-7 10 -16z m-1670 -519 c7 -9 11 -18 8 -20 -9 -10 -38 7 -38 21 0 18 14 18 30
-1z m794 -78 c3 4 6 4 6 1 0 -3 -6 -11 -13 -17 -11 -8 -18 -6 -33 10 -18 20
-18 20 8 10 14 -5 29 -7 32 -4z m784 -478 c37 -7 52 -16 60 -35 8 -17 20 -24
39 -24 41 -1 99 -77 96 -128 -3 -70 -14 -102 -34 -102 -11 0 -22 6 -25 14 -3
8 -18 19 -34 25 -16 5 -37 22 -47 38 -29 45 -54 64 -77 57 -46 -15 -92 -11
-138 11 -27 13 -48 21 -48 18 0 -3 -6 0 -14 6 -10 8 -16 9 -21 1 -10 -16 -19
-13 -59 19 -21 16 -42 32 -49 34 -19 6 22 47 48 47 12 0 31 -9 43 -20 14 -14
22 -16 22 -8 0 18 55 41 80 33 12 -4 26 -2 33 3 12 10 39 18 64 21 7 0 34 -4
61 -10z m-1792 -1015 c-10 -7 -14 -18 -10 -28 4 -12 0 -16 -15 -16 -12 0 -21
-4 -21 -10 0 -5 -4 -10 -9 -10 -12 0 -2 42 13 55 7 6 15 18 19 29 6 15 10 16
23 5 14 -12 14 -14 0 -25z m-121 -34 c3 -5 1 -10 -4 -10 -6 0 -11 5 -11 10 0
6 2 10 4 10 3 0 8 -4 11 -10z m-25 -10 c0 -5 -4 -10 -10 -10 -5 0 -10 5 -10
10 0 6 5 10 10 10 6 0 10 -4 10 -10z m228 -49 c3 -8 -1 -12 -9 -9 -7 2 -15 10
-17 17 -3 8 1 12 9 9 7 -2 15 -10 17 -17z m-134 -33 c28 -36 21 -56 -14 -38
-12 6 -33 9 -47 5 -22 -5 -24 -3 -18 12 4 10 10 26 12 36 8 27 39 20 67 -15z
m-109 -39 c4 -5 -1 -19 -10 -29 -15 -17 -14 -20 20 -45 50 -39 37 -42 -23 -6
-27 17 -57 31 -66 31 -9 0 -16 5 -16 10 0 6 6 10 13 10 8 0 22 9 32 20 20 22
40 26 50 9z m-17 -313 c-17 -17 -24 -12 -47 32 -20 38 -1 47 32 14 27 -27 29
-32 15 -46z m151 41 c6 -8 8 -17 4 -20 -17 -18 -89 4 -78 24 9 14 61 11 74 -4z
m-259 -57 c0 -10 9 -21 20 -25 25 -8 55 -65 34 -65 -8 0 -14 -6 -14 -14 0 -22
-27 -27 -94 -17 -5 0 -3 8 4 16 14 17 7 31 -20 38 -22 6 -37 -8 -19 -19 8 -4
7 -9 -2 -15 -10 -6 -11 -9 -1 -9 6 0 12 -4 12 -10 0 -5 -3 -9 -7 -8 -5 0 -16
-2 -25 -6 -31 -14 -48 0 -39 31 12 41 59 126 78 140 21 16 73 -10 73 -37z
m734 -52 c36 -42 44 -58 27 -58 -6 0 -18 14 -28 30 -9 17 -25 33 -35 36 -18 5
-26 34 -9 34 5 0 26 -19 45 -42z m106 -193 c-19 -24 34 -40 58 -17 21 19 29
15 41 -19 8 -24 8 -36 0 -45 -8 -9 -8 -14 -1 -14 6 0 12 5 14 12 2 6 20 -17
40 -53 43 -76 58 -91 121 -119 26 -12 47 -24 47 -27 0 -12 -33 -43 -47 -43 -9
0 -12 -11 -11 -32 3 -27 -1 -34 -19 -36 -25 -4 -38 26 -29 63 7 26 4 30 -65
78 -26 18 -76 60 -113 95 l-67 62 -3 63 c-2 34 -7 73 -11 87 -6 23 -4 22 23
-10 18 -20 27 -39 22 -45z m1286 20 c28 1 56 5 62 9 10 6 45 -20 106 -76 16
-16 24 -28 18 -28 -7 0 -15 -12 -18 -27 -4 -16 -33 -57 -64 -93 -31 -36 -62
-74 -68 -86 -6 -11 -27 -32 -47 -45 -19 -13 -38 -35 -42 -47 -3 -16 -8 -20
-13 -12 -7 12 -20 -16 -24 -50 0 -8 -10 -15 -21 -16 -28 -2 -58 -15 -71 -32
-6 -9 -25 -15 -43 -14 -17 0 -31 -4 -31 -9 0 -5 4 -9 9 -9 5 0 11 -7 15 -15 3
-8 2 -14 -2 -14 -18 3 -22 -3 -13 -20 8 -15 7 -20 -8 -24 -11 -2 -24 0 -30 6
-8 8 -11 8 -11 -1 0 -6 -12 -23 -27 -38 -16 -15 -21 -23 -13 -19 12 6 13 5 3
-6 -10 -10 -16 -10 -25 -1 -7 7 -16 12 -20 12 -7 0 -2 -7 45 -62 9 -12 17 -25
17 -30 0 -12 -37 -10 -73 6 -37 15 -190 143 -195 161 -2 7 -12 15 -23 18 -10
3 -19 10 -19 16 0 17 18 13 40 -9 11 -11 24 -20 29 -20 6 0 22 -11 37 -25 30
-28 66 -36 44 -10 -7 8 -17 15 -22 15 -10 0 -78 49 -143 103 -23 19 -41 26
-57 23 -27 -6 -89 14 -91 29 0 6 11 12 26 15 26 5 24 8 -63 104 -50 55 -90
103 -90 108 0 4 12 8 26 8 28 0 53 24 54 52 0 24 120 84 132 66 6 -10 10 -10
18 2 12 19 13 30 1 30 -13 0 0 48 15 54 8 3 26 1 40 -4 17 -7 23 -7 19 0 -3 6
1 10 10 10 23 0 95 -24 95 -32 0 -4 10 -5 22 -3 12 3 30 -2 39 -11 10 -9 30
-14 46 -13 34 4 56 -8 49 -27 -5 -12 -2 -12 17 -3 12 6 19 8 15 4 -11 -12 34
-33 52 -25 8 3 22 6 30 5 8 0 18 4 22 10 5 6 8 5 8 -4 0 -11 5 -9 22 5 12 10
18 13 14 7 -4 -7 -5 -13 -2 -13 3 0 13 15 22 33 23 45 64 78 83 68 9 -4 39 -7
67 -6z m-2792 -126 c4 -4 -14 -10 -40 -14 -27 -3 -65 -10 -85 -15 -45 -12 -49
-12 -49 0 0 6 7 10 15 10 8 0 29 9 46 19 31 19 92 19 113 0z m3536 -15 c0 -8
-4 -12 -10 -9 -5 3 -10 13 -10 21 0 8 5 12 10 9 6 -3 10 -13 10 -21z m-3309
-1 c12 -15 12 -16 -3 -10 -10 3 -18 2 -18 -3 0 -6 -7 -10 -15 -10 -8 0 -15 9
-15 20 0 25 32 27 51 3z m-677 -2 c4 -5 -1 -8 -9 -7 -21 3 -31 16 -12 16 9 0
18 -4 21 -9z m904 -20 c3 -10 0 -12 -12 -8 -9 4 -16 2 -16 -4 0 -6 -4 -7 -10
-4 -5 3 -10 13 -10 21 0 19 42 15 48 -5z m-784 -12 c51 -40 23 -71 -44 -49
-42 14 -57 35 -39 56 17 20 52 17 83 -7z m146 11 c0 -4 -13 -13 -29 -20 -23
-9 -34 -9 -53 1 l-23 13 23 5 c36 9 82 9 82 1z m3540 -86 c0 -8 -9 -14 -20
-14 -19 0 -27 19 -14 33 10 9 34 -4 34 -19z m-3090 -18 c0 -3 -4 -8 -10 -11
-5 -3 -10 -1 -10 4 0 6 5 11 10 11 6 0 10 -2 10 -4z m625 -81 c0 -13 -8 -21
-22 -23 -17 -3 -23 2 -23 16 0 10 3 22 7 26 13 13 38 1 38 -19z m2201 0 c-22
-17 -46 -20 -46 -6 0 8 21 16 55 19 6 1 1 -5 -9 -13z m-3756 -27 c0 -19 -2
-20 -10 -8 -13 19 -13 30 0 30 6 0 10 -10 10 -22z m1622 -5 c10 -9 18 -27 18
-39 0 -14 14 -36 35 -55 19 -18 35 -39 35 -46 0 -16 97 -108 143 -136 29 -18
68 -59 62 -65 -4 -4 -125 77 -155 103 -34 31 -86 63 -77 48 16 -25 -25 -13
-54 16 -33 33 -37 51 -13 51 13 0 11 6 -10 25 -19 18 -26 34 -26 63 0 54 11
64 42 35z m2072 7 c32 -12 36 -34 5 -25 -14 5 -19 3 -15 -3 4 -6 0 -27 -8 -46
-9 -21 -11 -38 -5 -41 5 -4 9 -13 9 -22 0 -8 11 -28 25 -45 30 -36 21 -61 -27
-77 -46 -15 -85 -9 -102 14 -8 11 -18 17 -22 12 -4 -4 -2 -13 4 -19 20 -20 14
-37 -15 -44 -37 -9 -131 -53 -138 -65 -10 -15 -87 -49 -113 -49 l-23 0 21 30
c13 19 30 30 45 30 13 0 30 9 37 19 8 11 26 23 42 27 15 3 33 15 39 25 13 20
37 26 37 8 0 -5 5 -7 10 -4 8 5 7 11 -1 21 -6 8 -9 17 -6 20 3 3 10 -4 17 -15
6 -12 17 -21 25 -21 20 0 19 12 -2 31 -10 9 -26 31 -35 48 -10 18 -22 30 -27
26 -18 -10 -23 16 -7 34 9 10 13 21 9 24 -3 4 3 7 14 7 13 0 20 6 19 17 -1 17
55 52 124 78 19 7 36 13 37 14 1 0 13 -3 27 -9z m-3632 -72 c-8 -8 -14 -4 -22
17 -6 16 -8 36 -4 44 5 12 10 8 22 -17 12 -24 13 -35 4 -44z m348 56 c0 -10
-52 -74 -61 -74 -19 0 -8 40 17 59 26 21 44 27 44 15z m2240 -55 c0 -7 -102 1
-110 8 -3 3 3 11 13 18 15 11 24 10 57 -3 22 -10 40 -20 40 -23z m750 11 c0
-5 -7 -10 -16 -10 -8 0 -12 5 -9 10 3 6 10 10 16 10 5 0 9 -4 9 -10z m325 -2
c5 4 5 1 1 -5 -10 -18 -23 -16 -30 3 -5 13 -4 14 7 6 8 -7 18 -8 22 -4z
m-3585 -45 c16 -20 18 -28 8 -35 -12 -7 -10 -9 21 -12 23 -2 23 -21 1 -46
l-20 -23 -25 23 c-21 19 -24 32 -23 72 1 26 6 48 9 48 4 0 17 -12 29 -27z
m1905 17 c3 -5 1 -10 -4 -10 -6 0 -11 5 -11 10 0 6 2 10 4 10 3 0 8 -4 11 -10z
m695 -40 c0 -12 -6 -12 -52 1 -40 11 -49 25 -20 32 20 4 72 -19 72 -33z m1093
23 c10 -6 -37 -43 -53 -43 -14 0 -50 38 -50 52 0 9 85 1 103 -9z m-3899 -19
c7 -19 -1 -34 -19 -34 -18 0 -28 17 -21 35 7 20 32 19 40 -1z m1236 -5 c0 -5
-4 -9 -10 -9 -5 0 -10 7 -10 16 0 8 5 12 10 9 6 -3 10 -10 10 -16z m980 -44
c13 -14 30 -25 38 -25 23 0 85 -68 78 -86 -10 -25 12 -44 43 -38 21 5 33 0 47
-18 10 -13 31 -29 47 -35 15 -7 33 -25 39 -40 17 -39 58 -72 91 -73 20 0 27
-5 27 -20 0 -11 15 -37 34 -57 18 -21 39 -49 46 -63 7 -14 21 -31 32 -38 27
-20 50 -71 44 -98 -5 -18 1 -28 29 -50 19 -15 34 -32 33 -38 -4 -27 36 -84 66
-93 25 -7 31 -14 30 -36 -2 -52 -4 -57 -23 -57 -46 0 -57 -43 -29 -113 8 -22
8 -31 0 -36 -8 -5 -9 -17 -3 -37 4 -16 6 -35 4 -41 -3 -7 5 -25 16 -39 12 -15
21 -34 21 -43 -1 -14 -2 -14 -11 2 -10 17 -49 24 -49 8 0 -11 87 -91 99 -91 6
0 17 10 25 22 18 25 28 19 32 -17 1 -14 12 -38 23 -54 26 -37 26 -51 1 -51
-12 0 -20 -6 -19 -12 1 -7 -1 -21 -6 -31 -4 -9 -3 -23 3 -30 13 -15 13 -147 0
-147 -5 0 -7 -4 -4 -9 3 -5 -5 -12 -19 -15 -14 -4 -25 -11 -25 -16 0 -6 -9
-10 -21 -10 -12 0 -19 5 -16 13 2 6 11 11 18 9 11 -3 12 -1 2 9 -7 7 -13 24
-13 37 0 19 4 23 20 19 11 -3 20 -3 20 0 0 3 -30 36 -67 73 -133 133 -160 170
-112 155 l22 -7 -21 28 c-19 27 -77 84 -166 164 -28 25 -35 29 -27 14 10 -21
41 -52 106 -109 21 -19 26 -28 17 -34 -10 -6 -8 -13 6 -32 11 -13 29 -42 40
-63 20 -36 20 -40 5 -51 -13 -10 -22 -10 -35 -1 -14 8 -20 8 -27 -2 -9 -14
-71 -13 -71 2 0 14 -29 -27 -30 -41 0 -7 8 -13 18 -13 14 0 15 -2 2 -10 -11
-7 -18 -3 -28 15 -14 28 -18 30 -28 13 -4 -7 -3 -8 4 -4 7 4 12 3 12 -2 0 -19
-14 -21 -27 -4 -12 16 -14 16 -27 -1 -16 -21 -46 -13 -46 12 0 24 -24 55 -40
49 -9 -3 -8 -8 5 -22 26 -26 6 -42 -35 -28 -29 11 -31 10 -24 -10 5 -18 4 -20
-17 -13 -36 12 -86 10 -114 -5 -20 -11 -27 -11 -40 0 -13 10 -15 9 -15 -9 0
-14 8 -23 25 -27 31 -8 32 -20 4 -27 -12 -3 -18 -10 -14 -16 3 -6 2 -11 -4
-11 -16 0 -22 18 -9 23 22 9 -40 57 -73 57 -16 0 -29 5 -29 12 0 6 -3 8 -7 5
-8 -9 -43 22 -43 38 0 7 -21 33 -47 58 -26 26 -43 47 -37 47 5 0 10 10 12 23
1 17 -9 28 -42 45 -24 13 -59 39 -77 59 l-34 36 43 -24 c24 -13 48 -32 53 -41
12 -22 59 -24 59 -3 0 13 -73 73 -125 103 -20 11 -20 11 1 12 11 0 47 -18 79
-41 40 -28 61 -37 68 -30 8 8 3 19 -14 37 -18 21 -20 26 -6 21 25 -9 20 5 -9
27 -18 12 -28 15 -33 8 -5 -8 -16 -5 -36 8 -25 17 -29 26 -32 76 -2 32 -9 64
-15 72 -11 13 -19 92 -10 92 2 0 16 -6 30 -14 15 -8 34 -17 42 -20 23 -9 51
-28 104 -71 40 -32 59 -40 93 -41 23 -1 40 2 37 7 -3 5 1 9 9 9 9 0 17 13 20
33 6 38 -18 69 -78 99 -22 11 -34 14 -27 7 14 -15 16 -29 3 -29 -5 0 -14 13
-20 29 -9 20 -29 35 -74 55 -34 15 -85 39 -112 52 -28 13 -58 24 -68 24 -15 0
-15 -3 -5 -20 7 -10 10 -22 7 -25 -13 -12 -41 9 -57 44 -16 33 -17 38 -2 53
14 16 19 16 70 -2 30 -10 93 -34 139 -54 76 -32 86 -34 105 -21 l20 15 -21 0
c-11 0 -26 6 -32 14 -10 12 -6 15 19 21 28 6 33 18 9 21 -5 1 -12 2 -15 3 -4
0 -1 8 6 16 7 9 22 12 39 9 37 -8 51 21 15 30 -18 5 -24 13 -24 33 0 25 0 26
20 8 18 -16 30 -8 13 9 -10 10 -11 136 -1 142 5 3 15 0 23 -6 15 -13 21 0 8
14 -8 8 -9 12 -12 40 0 7 -10 16 -21 19 -13 3 -18 11 -14 20 4 12 0 14 -15 10
-17 -4 -19 -8 -10 -19 15 -19 -1 -18 -28 1 -15 10 -24 12 -28 4 -4 -5 -4 -13
-1 -16 3 -3 1 -14 -5 -25 -9 -17 -12 -17 -41 12 -25 25 -28 33 -18 45 17 20
59 19 82 -2 16 -14 18 -14 18 -1 0 9 10 18 22 21 24 7 49 -8 45 -26 -1 -7 9
-11 26 -9 15 2 27 -1 27 -7 0 -6 7 -11 16 -11 17 0 88 -54 146 -111 20 -20 39
-35 42 -32 2 2 22 -5 45 -17 56 -28 52 -9 -6 29 -55 36 -93 67 -93 75 0 6 88
-44 132 -75 34 -25 46 -24 23 1 -22 25 -5 26 24 3 15 -12 23 -33 26 -66 3 -26
2 -46 -3 -44 -4 3 -16 1 -27 -3 -18 -7 -104 32 -170 77 -32 22 -35 15 -14 -34
23 -55 51 -83 77 -76 12 3 35 -11 68 -42 36 -35 41 -43 19 -30 -16 10 -42 29
-57 43 -35 32 -49 22 -16 -11 18 -18 22 -29 16 -41 -12 -21 -23 -20 -57 5 -34
25 -50 19 -43 -16 5 -30 21 -42 32 -25 10 16 28 5 41 -23 20 -45 38 -70 80
-115 65 -68 3 -22 -95 72 -53 50 -58 53 -50 31 7 -18 0 -19 -26 -5 -23 12 -50
3 -50 -16 0 -8 11 -19 25 -24 13 -5 42 -21 65 -35 33 -21 40 -22 40 -9 0 8 5
14 12 12 16 -6 29 -56 15 -61 -15 -5 68 -92 123 -130 25 -17 49 -37 53 -44 4
-7 15 -13 23 -13 8 0 12 5 9 10 -14 23 9 7 53 -35 50 -49 64 -47 37 6 -13 24
-14 33 -5 39 7 4 9 13 6 19 -4 6 -3 11 2 11 5 0 7 11 4 25 -2 14 -8 25 -12 25
-4 0 -8 22 -8 49 0 42 3 49 18 46 15 -3 17 2 13 26 -3 24 -1 29 16 29 12 0 21
5 21 10 0 6 -7 10 -15 10 -8 0 -15 6 -15 14 0 10 9 12 40 6 33 -6 38 -5 29 6
-6 8 -15 12 -19 9 -5 -3 -11 -1 -15 4 -3 6 4 8 15 6 18 -3 21 0 18 22 -2 15
-10 28 -18 30 -13 4 -13 3 0 -6 12 -8 12 -13 3 -22 -10 -10 -14 -7 -21 12 -7
19 -6 26 7 31 9 4 11 7 5 7 -7 1 -14 10 -17 22 -3 12 -10 18 -15 15 -5 -3 -17
1 -28 8 -10 8 -24 12 -31 9 -13 -5 -30 23 -19 34 3 3 32 -10 65 -30 74 -46 86
-47 37 -2 -21 19 -42 35 -46 35 -4 0 -19 11 -34 25 -15 14 -31 25 -37 25 -5 0
-9 10 -9 23 0 34 -38 65 -86 70 -23 3 -51 10 -63 16 -12 7 -27 11 -34 9 -15
-4 -87 40 -84 52 1 4 -19 29 -46 54 -26 25 -43 46 -38 46 6 0 13 -4 16 -10 9
-14 35 -13 35 2 0 6 -8 20 -17 31 -13 15 -15 21 -5 24 20 7 14 30 -18 65 -16
18 -30 36 -30 41 0 5 -22 30 -48 55 -58 56 -89 102 -69 102 7 0 24 -11 37 -25z
m170 -27 c0 -5 -8 -8 -17 -6 -12 2 -19 14 -21 33 l-2 30 20 -24 c11 -13 20
-28 20 -33z m-427 24 c10 -10 14 -21 11 -25 -3 -3 9 -12 27 -20 19 -8 43 -25
54 -37 11 -13 14 -20 7 -16 -8 5 -25 3 -38 -4 -20 -11 -27 -11 -44 5 -11 10
-20 25 -20 32 0 8 -10 23 -22 32 -13 11 -19 24 -15 34 8 22 20 21 40 -1z m-75
-29 c18 -14 31 -27 28 -30 -7 -8 -86 47 -86 59 0 11 12 4 58 -29z m2220 13 c3
-12 -1 -17 -10 -14 -7 3 -15 13 -16 22 -3 12 1 17 10 14 7 -3 15 -13 16 -22z
m-2403 -23 c0 -12 12 -37 25 -55 14 -18 23 -39 22 -46 -2 -7 4 -15 13 -18 17
-7 21 -34 4 -34 -14 0 -90 77 -93 94 -1 6 -5 16 -9 22 -4 7 -6 24 -5 38 2 21
7 26 23 24 13 -2 20 -11 20 -25z m-1358 0 c32 -41 35 -53 14 -53 -22 0 -61 36
-61 57 0 19 30 16 47 -4z m2203 -48 c7 -8 19 -15 26 -15 8 0 16 -11 20 -24 4
-16 18 -27 45 -36 34 -12 41 -11 58 4 12 11 20 13 23 6 2 -6 11 -8 20 -5 9 4
14 13 12 20 -8 19 14 29 32 14 14 -11 14 -13 0 -21 -8 -5 -13 -15 -10 -22 4
-11 -5 -14 -40 -14 -53 0 -66 -6 -66 -33 0 -10 -2 -19 -4 -19 -14 0 -36 14
-36 22 0 5 -25 34 -55 63 -51 49 -67 75 -46 75 5 0 14 -7 21 -15z m-2253 -17
c10 -14 43 -100 42 -108 -1 -3 6 -23 15 -44 19 -45 16 -52 -13 -36 -22 11 -28
1 -11 -16 6 -6 12 -38 14 -72 3 -58 2 -61 -14 -47 -9 8 -21 15 -26 15 -5 0
-20 9 -34 20 -14 11 -31 20 -39 20 -25 0 -51 32 -51 63 l0 31 20 -22 c11 -12
20 -26 20 -32 0 -5 5 -10 10 -10 16 0 12 22 -10 55 -29 43 -26 64 4 36 37 -35
48 -18 26 35 -24 55 -24 51 0 57 15 4 20 14 20 36 0 32 11 40 27 19z m64 -9
c11 -5 17 -14 14 -20 -7 -11 -45 7 -45 21 0 13 7 13 31 -1z m-201 -12 c0 -8 9
-24 20 -37 28 -33 25 -50 -4 -20 -27 28 -43 70 -27 70 6 0 11 -6 11 -13z m714
-2 c3 -9 0 -15 -9 -15 -8 0 -15 -8 -15 -19 0 -12 -9 -20 -27 -24 -36 -7 -43
-2 -43 33 0 26 4 29 38 33 20 2 40 4 43 5 4 1 9 -5 13 -13z m776 -16 c0 21 38
-7 65 -47 51 -76 91 -126 104 -130 9 -3 12 1 8 10 -4 13 -1 13 18 4 19 -9 22
-16 18 -43 -5 -32 -4 -33 28 -35 19 -1 51 0 72 1 36 2 67 -11 67 -30 0 -5 -12
-9 -27 -9 -37 0 -57 -14 -50 -34 4 -9 2 -28 -3 -42 -8 -20 -15 -24 -33 -19
-44 12 -68 29 -73 52 -4 16 -13 23 -31 23 -23 0 -25 3 -21 40 2 22 0 40 -4 40
-4 0 -13 10 -19 23 -11 20 -11 21 4 8 37 -30 14 4 -43 62 -36 38 -58 68 -55
77 4 11 1 10 -8 -2 -13 -16 -15 -16 -36 8 -25 29 -22 65 4 44 11 -9 15 -9 15
-1z m-1800 -37 c-1 -24 -27 -55 -39 -47 -12 7 -15 68 -5 78 11 11 44 -13 44
-31z m3239 -39 c31 -30 72 -61 91 -70 30 -12 33 -16 18 -24 -19 -11 -26 -7
-77 42 -15 14 -41 34 -58 44 -18 10 -41 31 -52 46 l-20 27 21 -6 c11 -3 46
-30 77 -59z m-589 48 c0 -18 -18 -21 -30 -6 -10 13 -9 15 9 15 11 0 21 -4 21
-9z m-2623 -38 c-3 -10 -5 -4 -5 12 0 17 2 24 5 18 2 -7 2 -21 0 -30z m2216
-26 c6 -22 6 -22 -14 2 -22 27 -26 49 -5 32 8 -6 16 -22 19 -34z m-1658 -7
c24 -25 26 -30 12 -36 -10 -3 -28 -4 -40 0 -18 4 -24 13 -25 36 -1 38 16 39
53 0z m1380 12 c-3 -3 -11 0 -18 7 -9 10 -8 11 6 5 10 -3 15 -9 12 -12z m783
9 c8 -5 12 -16 10 -25 -3 -15 -5 -15 -26 -1 -31 23 -16 47 16 26z m366 -20
c19 -21 14 -63 -7 -56 -7 3 -25 7 -41 9 -34 6 -60 26 -33 26 9 0 21 9 27 20
13 25 32 25 54 1z m-2346 -10 c3 -8 -1 -12 -9 -9 -7 2 -15 10 -17 17 -3 8 1
12 9 9 7 -2 15 -10 17 -17z m1086 -45 l27 -36 -26 10 c-39 15 -50 12 -33 -7
19 -23 30 -53 19 -53 -5 0 -11 10 -14 21 -5 18 -11 21 -40 15 -42 -8 -82 19
-72 47 9 21 28 22 45 2 11 -13 14 -13 27 1 13 13 13 17 -2 40 l-16 25 29 -15
c16 -8 41 -31 56 -50z m366 34 c0 -4 -11 -5 -25 -2 -14 2 -23 8 -20 12 6 10
45 1 45 -10z m-450 6 c0 -3 -4 -8 -10 -11 -5 -3 -10 -1 -10 4 0 6 5 11 10 11
6 0 10 -2 10 -4z m303 -26 c-3 -11 -9 -20 -14 -20 -10 0 -12 24 -2 33 13 13
21 7 16 -13z m1727 4 c0 -8 -5 -12 -10 -9 -6 4 -8 11 -5 16 9 14 15 11 15 -7z
m-3771 -36 c1 -5 -3 -8 -9 -8 -5 0 -10 12 -9 28 0 24 1 25 9 7 5 -11 9 -23 9
-27z m261 15 c-1 -27 -1 -27 -15 -9 -14 19 -12 36 6 36 5 0 9 -12 9 -27z
m1411 14 c-1 -12 -15 -9 -19 4 -3 6 1 10 8 8 6 -3 11 -8 11 -12z m1119 -8 c0
-11 -27 -12 -34 0 -3 4 -3 11 0 14 8 8 34 -3 34 -14z m50 11 c0 -5 -7 -10 -15
-10 -8 0 -15 5 -15 10 0 6 7 10 15 10 8 0 15 -4 15 -10z m620 -18 c36 -36 49
-96 29 -131 -21 -38 -86 -42 -118 -8 -19 22 -22 31 -16 71 8 50 37 96 61 96 9
0 28 -13 44 -28z m-2780 -2 c0 -5 -2 -10 -4 -10 -3 0 -8 5 -11 10 -3 6 -1 10
4 10 6 0 11 -4 11 -10z m82 -7 c22 -25 51 -84 44 -90 -3 -3 -12 0 -21 7 -8 7
-24 10 -35 7 -11 -3 -18 -1 -14 4 3 5 0 9 -6 9 -7 0 -10 7 -6 15 3 8 -2 21
-10 30 -8 8 -12 19 -9 25 10 16 40 12 57 -7z m2428 -8 c7 -9 10 -18 7 -21 -10
-11 -37 5 -37 21 0 19 14 19 30 0z m-67 -37 c23 -12 22 -26 -5 -47 l-22 -18
27 -27 c15 -15 24 -32 21 -38 -4 -6 -7 -47 -7 -90 1 -43 -3 -78 -8 -78 -5 0
-21 7 -34 16 -20 13 -25 13 -25 3 0 -9 -7 -6 -21 8 -15 15 -21 33 -21 63 1 27
-4 43 -14 47 -8 3 -14 12 -14 20 0 10 -9 14 -32 11 -19 -2 -33 2 -35 9 -7 19
26 28 48 15 10 -7 28 -12 40 -12 19 0 21 4 15 38 -7 38 -37 72 -63 72 -11 0
-11 3 -1 14 10 11 28 13 73 9 33 -3 68 -10 78 -15z m-3406 -33 c10 -2 20 -4
23 -5 3 0 -7 -8 -22 -16 -16 -8 -28 -21 -28 -29 0 -8 -5 -15 -12 -15 -9 0 -9
-3 0 -12 19 -19 14 -37 -8 -31 -15 4 -20 13 -18 37 1 17 5 38 9 47 4 8 4 21
-1 29 -14 22 0 33 20 15 10 -9 27 -18 37 -20z m341 13 c15 -15 16 -41 0 -36
-6 2 -18 14 -26 26 -12 19 -12 22 0 22 8 0 19 -5 26 -12z m1502 -9 c0 -4 -8
-13 -17 -18 -14 -8 -9 -10 24 -11 32 0 46 -5 55 -20 7 -11 21 -20 30 -20 20 0
21 -1 12 -24 -3 -9 -14 -16 -23 -17 -12 0 -11 -2 4 -8 12 -5 23 -4 27 3 8 13
10 10 25 -31 6 -18 7 -33 2 -33 -5 0 -9 -4 -9 -10 0 -5 6 -10 14 -10 14 0 26
-29 26 -66 0 -30 -34 -57 -60 -49 -24 8 -24 -12 0 -33 13 -11 12 -12 -8 -7
-21 6 -23 5 -13 -13 6 -12 11 -25 11 -31 0 -16 -73 -5 -87 15 -7 9 -16 14 -20
11 -9 -10 39 -58 53 -53 14 5 34 -13 34 -31 0 -8 -11 -11 -30 -9 -17 2 -32 5
-33 7 -2 2 -11 16 -20 32 -19 29 -25 31 -45 19 -16 -11 -5 -42 15 -42 8 0 27
-7 43 -15 21 -11 27 -20 23 -35 -3 -12 -8 -18 -11 -15 -8 8 -33 -16 -26 -26 3
-5 -4 -9 -14 -9 -15 0 -19 -5 -15 -19 6 -23 -30 -51 -58 -44 -10 3 -19 0 -19
-6 0 -16 -35 -14 -49 3 -9 10 -8 15 4 20 8 3 15 17 15 31 0 14 5 25 11 25 8 0
7 6 -2 17 -11 13 -11 17 -1 20 6 3 12 11 12 19 0 8 5 14 11 14 6 0 -1 14 -15
31 -32 37 -34 69 -6 69 18 0 25 10 21 33 -2 10 27 9 34 -3 10 -16 37 1 32 21
-6 22 3 25 21 7 9 -9 12 -9 12 3 0 8 -5 20 -11 26 -6 6 -13 26 -15 43 -4 30
-2 32 21 26 35 -9 32 12 -7 46 l-33 28 35 -3 c31 -2 35 1 33 20 -2 17 1 21 13
16 14 -5 14 -3 3 16 -15 23 -48 28 -68 9 -11 -11 -12 -7 -6 19 3 18 2 34 -4
37 -14 9 20 44 37 38 6 -2 12 -8 12 -13z m-703 -3 c-3 -8 -3 -17 1 -20 3 -4 7
-16 9 -28 2 -12 10 -29 19 -39 13 -15 13 -16 -10 -12 -14 3 -30 10 -35 17 -14
17 -20 69 -8 84 13 16 30 15 24 -2z m439 3 c3 -6 -3 -20 -14 -31 -23 -23 -34
-13 -21 20 9 24 24 29 35 11z m937 -4 c8 -19 -13 -31 -24 -14 -13 20 -11 29 5
29 8 0 16 -7 19 -15z m-1954 -35 c11 -24 11 -24 -3 -6 -9 11 -16 24 -16 30 0
12 5 7 19 -24z m1453 -3 c9 -15 10 -33 1 -24 -3 4 -12 2 -20 -4 -9 -9 -13 -8
-13 0 0 6 5 11 11 11 5 0 7 5 4 11 -5 6 -11 5 -18 -6 -11 -14 -14 -14 -35 0
-12 9 -22 20 -22 25 0 23 76 13 92 -13z m-1735 -68 c6 -94 16 -119 48 -119 19
0 25 -5 25 -21 0 -28 -19 -61 -31 -53 -5 3 -16 1 -23 -5 -24 -20 -36 33 -35
160 0 132 9 153 16 38z m471 25 c12 -8 22 -26 22 -39 0 -20 -5 -23 -35 -23
-38 0 -49 10 -59 51 -6 25 -4 27 22 27 15 0 38 -7 50 -16z m800 -30 c-4 -3
-16 1 -28 9 -15 11 -18 16 -8 20 15 5 45 -19 36 -29z m-46 -26 c28 -29 36 -48
19 -48 -6 0 -13 5 -16 10 -4 6 -15 8 -26 5 -13 -4 -19 -2 -19 9 0 9 -8 21 -19
28 -14 8 -16 14 -7 23 14 16 34 8 68 -27z m518 20 c0 -6 -6 -5 -15 2 -8 7 -15
14 -15 16 0 2 7 1 15 -2 8 -4 15 -11 15 -16z m-794 -3 c18 -15 18 -15 -5 -13
-14 2 -26 9 -29 16 -5 17 10 15 34 -3z m-1466 -15 c-6 -11 -13 -20 -15 -20 -3
0 -5 9 -5 20 0 11 7 20 15 20 13 0 14 -4 5 -20z m180 -4 c0 -13 -7 -27 -16
-30 -29 -11 -37 -6 -21 12 10 10 17 24 17 30 0 7 5 12 10 12 6 0 10 -11 10
-24z m4408 -1 c-3 -3 -9 2 -12 12 -6 14 -5 15 5 6 7 -7 10 -15 7 -18z m-3839
-11 c22 -29 27 -44 12 -44 -5 0 -18 16 -30 35 -24 41 -12 47 18 9z m1975 -20
c3 -8 2 -12 -4 -9 -6 3 -10 10 -10 16 0 14 7 11 14 -7z m-1656 -17 c2 -10 -3
-17 -12 -17 -10 0 -16 9 -16 21 0 24 23 21 28 -4z m475 4 c31 -12 45 -81 16
-81 -22 0 -35 19 -31 43 2 10 -2 25 -8 33 -14 16 -10 17 23 5z m337 -1 c0 -5
-7 -10 -15 -10 -8 0 -15 5 -15 10 0 6 7 10 15 10 8 0 15 -4 15 -10z m-390 -19
c12 -23 3 -51 -15 -51 -19 0 -24 11 -18 43 6 32 18 35 33 8z m177 8 c19 -7 29
-7 31 0 2 6 11 11 19 11 12 0 13 -3 4 -13 -6 -8 -7 -17 -3 -22 7 -8 -13 -4
-53 10 -20 7 -20 6 -1 -9 17 -14 18 -16 3 -16 -9 0 -17 -7 -17 -15 0 -19 -21
-19 -46 0 -19 14 -19 14 1 15 14 0 16 3 8 11 -14 14 -6 39 12 39 8 0 26 -5 42
-11z m943 -9 c0 -5 -2 -10 -4 -10 -3 0 -8 5 -11 10 -3 6 -1 10 4 10 6 0 11 -4
11 -10z m676 -13 c15 -13 24 -28 21 -34 -10 -17 -57 -6 -83 18 -13 12 -24 19
-24 15 0 -4 -6 -4 -12 1 -9 5 -1 10 22 14 19 4 38 7 42 8 4 0 19 -10 34 -22z
m-3118 -9 c17 -31 32 -88 24 -86 -18 3 -42 -16 -42 -33 0 -23 -13 -24 -31 -2
-11 12 -11 17 -2 20 8 3 10 15 6 33 -5 27 14 90 28 90 3 0 11 -10 17 -22z
m2582 18 c0 -2 -7 -6 -15 -10 -8 -3 -15 -1 -15 4 0 6 7 10 15 10 8 0 15 -2 15
-4z m435 -36 c3 -6 3 -10 -2 -10 -11 1 -43 26 -43 34 0 9 37 -11 45 -24z
m-1775 -1 c0 -11 -3 -11 -24 -3 -23 9 -20 23 4 17 11 -3 20 -9 20 -14z m-1127
-35 c-4 -19 -20 -13 -32 12 -12 27 -12 27 11 12 13 -9 22 -19 21 -24z m498 29
c0 -5 2 -19 5 -32 3 -18 1 -22 -12 -17 -8 3 -18 6 -20 6 -2 0 -4 11 -4 25 0
16 6 25 15 25 8 0 15 -3 16 -7z m789 -39 c0 -2 -7 -4 -15 -4 -8 0 -15 4 -15
10 0 5 7 7 15 4 8 -4 15 -8 15 -10z m-1320 -15 c7 -11 9 -24 5 -27 -7 -7 -35
25 -35 40 0 16 19 8 30 -13z m-256 -17 c3 -5 2 -19 -1 -31 -4 -16 -11 -21 -24
-18 -12 3 -26 -4 -40 -21 l-20 -27 5 25 c3 14 6 31 6 38 0 8 7 11 19 7 13 -4
20 0 24 15 5 20 22 27 31 12z m3643 -8 c1 -5 -2 -16 -7 -24 -12 -20 -35 2 -26
25 6 17 27 16 33 -1z m-996 -70 c12 -14 11 -16 -5 -13 -11 2 -21 10 -24 17 -5
17 13 15 29 -4z m737 -31 c-10 -2 -18 -9 -18 -14 0 -6 -4 -7 -10 -4 -18 11
-10 21 18 22 15 0 19 -1 10 -4z m-748 -13 c0 -5 -5 -10 -11 -10 -5 0 -7 5 -4
10 3 6 8 10 11 10 2 0 4 -4 4 -10z m-2420 -56 c0 -8 -4 -12 -10 -9 -5 3 -10
10 -10 16 0 5 5 9 10 9 6 0 10 -7 10 -16z m397 -51 c2 -10 6 -47 8 -83 7 -84
-11 -48 -19 40 -4 34 -9 67 -13 74 -3 7 -1 6 7 -1 8 -7 15 -21 17 -30z m1209
23 c3 -8 0 -24 -6 -36 -11 -20 -13 -21 -30 -5 -16 14 -17 20 -7 36 14 22 35
25 43 5z m-396 -121 c7 -9 8 -15 2 -15 -5 0 -12 7 -16 15 -3 8 -4 15 -2 15 2
0 9 -7 16 -15z m822 -51 c14 -14 16 -19 6 -26 -19 -12 -30 -10 -57 11 -13 10
-21 23 -17 29 9 14 44 7 68 -14z m-150 -3 c-1 -7 3 -20 9 -27 7 -8 13 -27 14
-43 2 -22 -3 -30 -22 -37 l-24 -9 26 -29 c22 -25 23 -30 10 -40 -14 -10 -14
-14 4 -32 l19 -21 -52 1 -51 1 3 33 c2 18 -2 39 -8 47 -15 18 1 76 28 106 19
19 19 23 6 37 -13 12 -13 16 -2 23 18 12 44 6 40 -10z m208 -26 c11 -13 10
-14 -4 -9 -9 3 -16 10 -16 15 0 13 6 11 20 -6z m-1998 -33 c4 10 11 8 31 -5
14 -9 33 -17 40 -17 8 0 27 -16 42 -35 14 -20 34 -34 42 -33 9 2 18 -3 21 -11
2 -8 0 -11 -6 -7 -18 11 -23 -26 -6 -39 21 -15 28 -51 13 -61 -6 -3 -16 -1
-22 5 -13 13 -31 15 -23 2 6 -8 -15 -21 -34 -21 -5 0 -15 12 -22 28 -8 17 -21
27 -35 27 -23 0 -45 15 -22 15 10 1 9 4 -4 14 -12 9 -14 16 -7 21 5 3 7 12 3
18 -4 7 -9 23 -11 37 -2 14 -12 32 -23 40 -11 9 -17 19 -13 23 4 4 13 2 20 -4
8 -7 13 -6 16 3z m3333 -14 c9 -14 11 -24 5 -26 -14 -5 -40 17 -40 34 0 21 17
17 35 -8z m-3175 -23 c7 -9 10 -18 7 -21 -7 -8 -47 14 -47 26 0 15 26 12 40
-5z m3703 3 c3 -10 7 -10 20 0 9 8 21 11 27 7 15 -9 12 -25 -5 -25 -11 0 -14
-7 -9 -25 5 -20 2 -25 -12 -25 -29 0 -39 12 -40 48 -1 32 10 44 19 20z m-3873
-6 c0 -4 -11 -9 -26 -10 -14 -1 -23 2 -19 8 7 12 45 14 45 2z m2345 -92 c3 -5
1 -10 -4 -10 -6 0 -11 5 -11 10 0 6 2 10 4 10 3 0 8 -4 11 -10z m-97 -136 c19
-13 22 -24 20 -57 -3 -40 -4 -42 -33 -39 -17 2 -39 15 -52 30 -21 27 -22 27
-55 10 -24 -12 -68 -18 -163 -21 -71 -2 -145 -2 -163 0 l-32 5 32 18 c31 16
217 33 335 30 33 -1 43 3 48 20 8 24 32 26 63 4z m-2240 -22 c3 -9 -3 -13 -19
-10 -12 1 -24 9 -27 16 -3 9 3 13 19 10 12 -1 24 -9 27 -16z m3216 -29 c32
-29 46 -53 30 -53 -16 0 -44 23 -44 35 0 8 -7 15 -15 15 -8 0 -19 9 -25 19
-22 42 -6 37 54 -16z m-2824 -20 c-1 -27 -1 -27 -15 -9 -14 19 -12 36 6 36 5
0 9 -12 9 -27z m2296 5 c10 -12 14 -18 7 -15 -6 4 -13 2 -15 -4 -4 -13 -38 16
-38 32 0 17 27 9 46 -13z m-950 -17 c-3 -5 -15 -7 -26 -4 -28 7 -25 13 6 13
14 0 23 -4 20 -9z m759 -1 c-3 -5 -11 -10 -16 -10 -6 0 -7 5 -4 10 3 6 11 10
16 10 6 0 7 -4 4 -10z m-895 -10 c0 -5 -4 -10 -10 -10 -5 0 -10 5 -10 10 0 6
5 10 10 10 6 0 10 -4 10 -10z m-90 -19 c0 -11 -35 -21 -72 -21 -31 0 -38 16
-10 23 31 8 82 7 82 -2z m980 5 c0 -3 -4 -8 -10 -11 -5 -3 -10 -1 -10 4 0 6 5
11 10 11 6 0 10 -2 10 -4z m60 -16 c0 -5 -2 -10 -4 -10 -3 0 -8 5 -11 10 -3 6
-1 10 4 10 6 0 11 -4 11 -10z m-2720 -10 c0 -5 8 -10 18 -10 14 0 14 -2 3 -9
-12 -8 -13 -12 -1 -25 16 -21 8 -30 -12 -13 -19 15 -33 67 -18 67 5 0 10 -4
10 -10z m588 -45 c-3 -3 -9 2 -12 12 -6 14 -5 15 5 6 7 -7 10 -15 7 -18z
m2718 -10 c13 -9 24 -31 28 -57 4 -24 14 -53 22 -66 15 -23 11 -62 -6 -62 -5
0 -7 -13 -3 -30 4 -23 2 -30 -10 -30 -10 0 -13 -6 -10 -20 8 -31 -24 -25 -40
8 -8 15 -12 33 -10 40 3 6 -2 12 -10 12 -8 0 -24 16 -36 35 -13 23 -28 35 -43
35 -12 0 -31 8 -42 18 -27 23 -89 44 -109 36 -9 -3 -18 -13 -20 -22 -3 -12 -6
-8 -12 11 -6 22 -3 31 11 42 20 16 28 15 82 -6 32 -13 34 -13 59 19 14 19 31
31 39 28 8 -3 20 1 26 9 17 19 58 19 84 0z m-2658 -55 c23 -21 42 -42 42 -45
0 -21 -72 32 -91 66 -16 31 5 22 49 -21z m-477 -182 c13 -17 17 -28 8 -23 -24
14 -50 39 -61 58 -16 31 27 3 53 -35z m2929 26 c0 -8 -4 -14 -9 -14 -12 0 -32
26 -25 33 10 9 34 -4 34 -19z m-866 -21 c8 -19 -8 -38 -23 -29 -16 10 -13 46
3 46 8 0 17 -8 20 -17z m-1993 -30 c13 -16 12 -17 -3 -4 -10 7 -18 15 -18 17
0 8 8 3 21 -13z m125 -43 c8 0 14 -6 14 -14 0 -18 -52 -6 -58 14 -3 9 1 11 12
7 10 -4 24 -7 32 -7z m434 -128 c0 -47 -16 -51 -18 -5 -1 15 -4 39 -8 53 -16
66 -15 74 5 35 11 -22 20 -59 21 -83z m-298 87 c9 -5 26 -9 37 -9 12 0 21 -5
21 -11 0 -12 -43 -7 -83 9 -16 7 -32 10 -36 8 -4 -3 -8 1 -8 9 0 15 33 12 69
-6z m2736 -34 c-3 -3 -9 2 -12 12 -6 14 -5 15 5 6 7 -7 10 -15 7 -18z m-2632
4 c10 -16 -9 -28 -31 -19 -11 5 -14 9 -7 9 7 1 10 6 7 11 -3 6 1 10 9 10 8 0
18 -5 22 -11z m52 -27 c2 -7 -2 -10 -12 -6 -9 3 -16 11 -16 16 0 13 23 5 28
-10z m-344 -91 c-2 -3 -12 3 -22 13 -16 17 -16 18 5 5 12 -7 20 -15 17 -18z
m2859 -61 c3 -13 0 -20 -8 -20 -18 0 -26 15 -19 34 7 20 20 13 27 -14z m501
-16 c10 -10 14 -24 10 -39 -4 -14 0 -33 10 -47 20 -28 20 -48 1 -48 -19 0 -19
-9 1 -31 31 -35 9 -43 -28 -10 -32 28 -36 36 -36 84 0 41 15 107 25 107 1 0 9
-7 17 -16z m131 -24 c3 -5 2 -10 -4 -10 -5 0 -13 5 -16 10 -3 6 -2 10 4 10 5
0 13 -4 16 -10z m-3235 -16 c0 -8 -4 -12 -10 -9 -5 3 -10 10 -10 16 0 5 5 9
10 9 6 0 10 -7 10 -16z m254 -88 c7 -37 5 -51 -6 -62 -12 -13 -18 -10 -41 22
l-26 37 21 29 c27 38 41 31 52 -26z m3070 44 c14 -5 26 -17 26 -26 0 -11 -5
-14 -16 -10 -9 3 -22 6 -30 6 -8 0 -14 9 -14 20 0 23 0 23 34 10z m-1629 -70
c3 -6 -1 -7 -9 -4 -18 7 -21 14 -7 14 6 0 13 -4 16 -10z"/>
<path d="M6910 2376 c0 -29 15 -43 24 -21 3 8 12 12 21 9 8 -3 15 -2 15 4 0 5
-8 12 -17 16 -10 3 -24 9 -30 12 -9 4 -13 -3 -13 -20z"/>
<path d="M7380 2426 c0 -8 6 -16 14 -19 10 -4 12 0 9 14 -6 22 -23 26 -23 5z"/>
<path d="M7392 2368 c7 -19 38 -22 38 -4 0 10 -9 16 -21 16 -12 0 -19 -5 -17
-12z"/>
<path d="M5872 1963 c5 -25 28 -28 28 -4 0 12 -6 21 -16 21 -9 0 -14 -7 -12
-17z"/>
<path d="M5887 1803 c-4 -3 -7 -11 -7 -17 0 -6 5 -5 12 2 6 6 9 14 7 17 -3 3
-9 2 -12 -2z"/>
<path d="M5810 1668 c0 -15 23 -20 32 -7 7 11 11 11 15 2 6 -17 20 -17 20 0 0
9 -12 13 -34 13 -18 -1 -33 -4 -33 -8z"/>
<path d="M5640 1461 c0 -38 81 -111 122 -111 54 0 23 61 -33 64 -22 1 -34 7
-34 17 0 13 -39 59 -50 59 -3 0 -5 -13 -5 -29z"/>
<path d="M5680 1362 c0 -5 12 -18 27 -28 l28 -18 -16 24 c-17 26 -39 38 -39
22z"/>
<path d="M5650 1346 c0 -2 7 -7 16 -10 8 -3 12 -2 9 4 -6 10 -25 14 -25 6z"/>
<path d="M6579 1193 c6 -13 16 -23 21 -23 5 0 15 -10 21 -22 l12 -23 -25 23
c-46 42 -66 18 -27 -32 26 -33 65 -36 64 -3 -1 27 -12 45 -49 77 -28 24 -28
24 -17 3z"/>
<path d="M6720 1089 c0 -5 5 -7 10 -4 6 3 10 8 10 11 0 2 -4 4 -10 4 -5 0 -10
-5 -10 -11z"/>
<path d="M6560 1083 c0 -5 16 -24 35 -43 19 -19 35 -39 35 -45 0 -6 11 -22 25
-35 22 -20 25 -21 31 -6 4 11 -10 34 -47 74 -52 55 -79 74 -79 55z"/>
<path d="M6420 1046 c0 -2 7 -7 16 -10 8 -3 12 -2 9 4 -6 10 -25 14 -25 6z"/>
<path d="M5981 1014 c0 -11 3 -14 6 -6 3 7 2 16 -1 19 -3 4 -6 -2 -5 -13z"/>
<path d="M6253 1010 c0 -9 12 -22 25 -28 22 -10 24 -9 18 11 -3 12 -6 25 -6
29 0 4 -9 6 -19 5 -11 -1 -19 -8 -18 -17z"/>
<path d="M6030 1006 c0 -3 7 -12 16 -20 16 -17 34 -13 34 7 0 8 -3 8 -9 -1 -7
-11 -9 -11 -14 2 -6 14 -27 23 -27 12z"/>
<path d="M5920 986 c0 -2 8 -10 18 -17 15 -13 16 -12 3 4 -13 16 -21 21 -21
13z"/>
<path d="M3432 1183 c-10 -4 -9 -9 4 -24 21 -23 42 -26 23 -2 -8 9 -12 18 -11
20 6 8 -2 10 -16 6z"/>
<path d="M3430 1135 c7 -8 17 -15 22 -15 6 0 5 7 -2 15 -7 8 -17 15 -22 15 -6
0 -5 -7 2 -15z"/>
<path d="M7983 7712 c4 -5 19 -13 34 -17 16 -3 36 -14 46 -23 12 -10 21 -12
28 -5 7 7 2 15 -14 26 -29 19 -103 35 -94 19z"/>
<path d="M7937 6294 c-7 -7 14 -44 24 -44 9 0 -1 39 -11 45 -4 2 -10 2 -13 -1z"/>
<path d="M5791 5994 c0 -11 3 -14 6 -6 3 7 2 16 -1 19 -3 4 -6 -2 -5 -13z"/>
<path d="M5806 5901 c-3 -5 1 -11 9 -14 9 -4 12 -1 8 9 -6 16 -10 17 -17 5z"/>
<path d="M8231 5729 c-36 -35 -36 -33 -16 -136 8 -43 15 -90 15 -105 0 -48 15
-31 36 40 14 49 18 89 16 150 -2 45 -7 82 -12 82 -5 0 -22 -14 -39 -31z"/>
<path d="M8050 5475 c-11 -13 -11 -26 -2 -66 17 -72 15 -94 -13 -149 -14 -27
-25 -52 -25 -55 0 -12 54 -4 89 15 45 22 71 76 70 143 -1 56 -8 72 -48 102
-40 29 -54 31 -71 10z"/>
<path d="M6070 5350 c-9 -6 -10 -10 -3 -10 6 0 15 5 18 10 8 12 4 12 -15 0z"/>
<path d="M7270 5223 c0 -13 5 -23 10 -23 14 0 13 -33 -1 -47 -9 -9 -5 -20 15
-43 14 -17 26 -35 26 -40 0 -4 7 -11 16 -14 8 -3 12 -2 9 4 -3 6 6 11 22 11
15 1 21 3 12 6 -10 2 -22 24 -29 49 -7 25 -21 49 -31 55 -10 5 -25 22 -33 37
-14 26 -15 26 -16 5z"/>
<path d="M7060 5138 c-27 -29 -25 -48 4 -48 13 0 29 -7 36 -15 16 -20 74 -19
94 1 19 18 21 55 4 72 -7 7 -36 12 -65 12 -41 0 -57 -5 -73 -22z"/>
<path d="M5680 5079 c-26 -43 -65 -70 -89 -61 -8 3 -12 -1 -9 -9 8 -24 97 -23
136 1 28 17 31 24 26 47 -9 35 -23 63 -32 63 -4 0 -18 -19 -32 -41z"/>
<path d="M7020 5069 c0 -5 5 -7 10 -4 6 3 10 8 10 11 0 2 -4 4 -10 4 -5 0 -10
-5 -10 -11z"/>
<path d="M7965 4930 c3 -5 14 -10 23 -10 15 0 15 2 2 10 -20 13 -33 13 -25 0z"/>
<path d="M7320 4294 c0 -8 5 -12 10 -9 6 4 8 11 5 16 -9 14 -15 11 -15 -7z"/>
<path d="M5497 3823 c-10 -9 -9 -23 2 -23 5 0 11 7 15 15 5 15 -5 20 -17 8z"/>
<path d="M8446 3214 c-3 -9 1 -30 9 -47 8 -16 15 -44 15 -60 0 -29 22 -56 46
-57 15 0 10 96 -6 115 -6 8 -21 17 -32 21 -11 3 -17 12 -14 20 3 7 1 16 -3 19
-5 3 -12 -2 -15 -11z"/>
<path d="M8951 3049 c-10 -22 -11 -37 -4 -48 5 -9 9 -38 7 -66 -1 -32 4 -56
13 -67 16 -18 2 -34 -19 -22 -9 6 -9 3 0 -9 8 -9 11 -21 8 -26 -4 -5 -2 -12 4
-16 15 -9 12 -23 -7 -29 -18 -6 -24 -27 -27 -93 0 -18 -5 -33 -10 -33 -5 0 -3
-6 3 -14 9 -10 9 -15 1 -18 -17 -5 -19 -178 -2 -178 7 0 24 -11 38 -25 20 -20
23 -28 14 -45 -6 -11 -20 -20 -30 -20 -21 0 -27 -15 -10 -25 6 -4 10 -14 9
-23 -3 -33 1 -42 20 -42 10 0 29 -9 42 -19 21 -17 22 -20 7 -26 -9 -4 -28 1
-42 10 -21 14 -26 15 -26 3 0 -7 7 -23 15 -34 8 -12 11 -24 8 -28 -8 -8 -13
-57 -7 -67 7 -12 54 12 54 27 0 38 67 25 72 -14 2 -18 10 -28 28 -32 14 -3 25
-11 24 -18 -3 -31 -5 -34 -25 -29 -16 4 -19 3 -11 -5 16 -16 -12 -40 -45 -37
-16 1 -40 1 -54 1 -25 -2 -26 -4 -19 -41 4 -21 19 -51 33 -67 14 -15 29 -40
32 -55 6 -27 24 -49 58 -72 17 -11 17 -14 2 -44 -14 -28 -20 -31 -45 -27 -22
5 -31 2 -39 -14 -15 -28 -14 -35 4 -28 16 6 51 -37 41 -52 -3 -5 6 -19 19 -30
14 -12 25 -27 25 -33 0 -6 -17 4 -37 22 -32 27 -39 30 -41 15 -2 -9 3 -28 12
-41 10 -16 12 -26 5 -30 -7 -5 -6 -12 2 -22 7 -8 14 -24 16 -36 5 -35 10 -62
12 -62 2 0 4 -17 7 -37 4 -29 1 -38 -11 -38 -8 0 -15 -4 -15 -9 0 -5 -19 -7
-42 -5 -95 9 -158 -9 -158 -45 0 -12 6 -21 13 -21 6 0 25 -22 40 -50 36 -63
75 -110 93 -110 8 0 11 -6 8 -15 -4 -8 -12 -15 -19 -15 -7 0 -18 -6 -24 -14
-10 -12 -7 -23 14 -57 l27 -42 -28 -24 -29 -25 35 -28 c33 -27 57 -33 32 -8
-7 7 -12 20 -12 30 0 15 4 17 18 9 15 -8 17 -26 17 -123 1 -150 26 -284 76
-393 12 -27 24 -71 25 -96 1 -25 13 -68 27 -95 14 -27 34 -68 46 -91 11 -23
21 -47 21 -53 0 -7 92 -10 280 -10 267 0 282 1 302 20 27 25 35 25 48 0 10
-19 21 -20 210 -20 l200 0 -12 25 c-8 17 -14 22 -19 14 -4 -7 -15 -9 -24 -5
-16 6 -15 8 5 26 31 27 35 26 53 -20 13 -35 20 -40 46 -40 28 0 38 16 19 30
-3 3 -10 19 -14 35 -7 28 -7 29 10 12 22 -22 35 -22 35 1 -1 9 2 27 6 38 6 19
2 22 -32 26 -21 3 -45 2 -53 -2 -9 -5 -23 -2 -35 6 -26 19 -34 18 -28 -6 7
-25 -5 -25 -37 0 -26 21 -56 27 -45 10 3 -5 1 -10 -4 -10 -15 0 -14 12 2 34
12 16 17 17 36 6 19 -10 22 -10 15 2 -4 7 -16 19 -26 26 -19 14 -24 47 -8 57
7 4 7 12 0 25 -5 10 -10 30 -10 44 0 22 5 26 28 26 35 1 57 18 66 53 7 31 -3
34 -39 11 -23 -15 -27 -15 -51 2 -15 11 -32 22 -38 25 -109 57 -126 61 -126
30 0 -11 -5 -21 -11 -23 -7 -2 -4 -16 10 -38 26 -44 26 -53 -1 -65 -16 -7 -22
-17 -20 -32 4 -28 -9 -29 -32 -4 -20 23 -14 74 12 104 14 16 13 17 -10 17 -14
0 -32 8 -39 17 -8 9 -9 14 -4 11 6 -4 17 -3 25 2 13 8 13 13 2 31 -13 20 -12
21 20 14 l33 -7 -24 21 c-13 11 -21 21 -17 21 4 0 -2 13 -13 29 -12 16 -21 33
-21 38 0 16 59 73 86 83 32 12 29 17 -11 22 -24 2 -30 -1 -30 -16 0 -20 -50
-45 -77 -38 -16 4 -15 6 5 23 17 14 18 18 6 19 -8 0 -26 12 -40 26 l-24 26 35
28 c35 29 50 30 50 4 0 -17 5 -17 32 -3 20 11 20 11 -3 23 -15 7 -25 22 -27
39 -5 37 -25 34 -71 -11 -21 -21 -47 -38 -57 -38 -11 0 -30 -4 -42 -8 -20 -7
-23 -5 -20 11 2 10 11 17 21 15 19 -3 24 37 6 55 -16 16 0 63 23 63 15 0 18 5
13 20 -7 23 13 28 21 5 4 -8 10 -15 15 -15 19 0 7 32 -26 69 -27 30 -34 45
-30 63 8 31 52 81 65 73 6 -3 10 2 10 12 0 10 7 31 15 47 9 16 13 38 9 48 -4
13 1 24 15 34 11 8 18 21 15 28 -3 8 0 25 7 37 15 30 28 149 21 201 -4 33 -10
43 -33 51 -30 12 -85 99 -74 117 3 6 -1 17 -9 26 -9 9 -14 20 -10 25 3 5 -5
22 -18 38 -19 22 -24 38 -22 72 1 24 -2 50 -8 57 -10 11 0 17 24 13 13 -2 21
51 11 68 -6 9 -14 31 -18 49 -3 18 -10 30 -15 27 -4 -3 -11 12 -15 33 -9 49
-13 54 -36 42 -15 -9 -21 -7 -25 5 -3 8 -14 15 -24 15 -10 0 -36 18 -57 39
-43 44 -83 62 -83 37 0 -21 -16 -21 -28 0 -5 8 -15 16 -23 18 -8 1 -24 8 -37
14 -19 11 -23 10 -28 -3 -4 -9 1 -24 10 -33 8 -10 17 -29 18 -43 3 -21 -1 -24
-33 -27 -27 -2 -38 -9 -42 -23 -3 -11 -11 -18 -19 -17 -24 5 -35 38 -27 86 4
26 5 50 2 55 -8 13 -32 7 -42 -12 -7 -13 -18 -17 -36 -14 -25 5 -34 26 -15 38
6 3 10 14 10 24 0 10 7 24 16 32 10 8 14 23 11 43 -2 18 1 36 9 44 8 7 14 29
14 47 0 31 3 34 27 32 36 -3 41 23 12 63 -18 24 -30 30 -61 30 -32 0 -40 5
-53 31 -9 16 -15 39 -13 50 2 13 -6 24 -22 33 -14 7 -24 17 -23 23 1 6 -7 19
-17 28 -20 18 -27 36 -12 34 19 -3 23 2 13 15 -9 10 -9 20 0 39 14 30 6 57
-16 57 -27 0 -73 29 -80 50 -3 10 -1 29 5 41 14 25 6 35 -35 43 -27 6 -32 3
-44 -25z m49 -129 c0 -5 -4 -10 -10 -10 -5 0 -10 5 -10 10 0 6 5 10 10 10 6 0
10 -4 10 -10z m149 -276 c19 -15 26 -64 9 -64 -8 0 -27 13 -44 28 -26 23 -30
33 -26 65 l4 37 21 -28 c12 -15 28 -32 36 -38z m-71 -307 c2 -10 -3 -17 -12
-17 -18 0 -29 16 -21 31 9 14 29 6 33 -14z m203 -164 c7 -14 22 -23 36 -23 19
0 23 -5 23 -28 0 -15 -4 -32 -9 -37 -18 -19 -16 -74 2 -95 10 -12 21 -18 26
-16 5 3 14 -1 21 -9 15 -18 4 -56 -15 -49 -7 3 -16 0 -20 -6 -10 -17 3 -60 19
-60 8 0 22 -12 31 -27 17 -25 17 -26 0 -19 -23 9 -45 -11 -45 -40 0 -13 -4
-24 -8 -24 -5 0 -17 -19 -27 -42 -16 -37 -21 -59 -26 -103 0 -5 2 -37 5 -70 5
-50 4 -56 -5 -35 -6 14 -11 42 -10 62 1 20 -3 39 -9 43 -5 3 -10 23 -10 44 0
41 -49 121 -74 121 -8 0 -21 15 -30 34 -20 43 -20 46 3 46 10 0 21 7 25 15 3
8 13 15 22 15 8 0 14 6 11 13 -2 6 0 22 4 35 8 20 6 22 -26 22 -18 0 -37 -4
-40 -10 -8 -13 -42 -13 -51 1 -8 13 13 29 39 29 20 0 87 41 87 53 0 4 -11 18
-25 31 -14 13 -25 26 -25 30 0 9 41 3 59 -8 11 -7 13 -1 9 30 -3 28 0 43 11
52 15 11 14 13 -1 26 -10 7 -18 26 -18 42 l0 29 15 -25 c8 -14 20 -35 26 -47z
m165 -89 c5 -28 2 -39 -14 -55 -12 -10 -23 -19 -26 -19 -2 0 -13 16 -25 36
-28 48 -28 92 2 104 28 11 53 -16 63 -66z m264 -63 c0 -10 -9 -21 -20 -24 -14
-4 -20 0 -20 12 0 21 9 31 27 31 7 0 13 -8 13 -19z m-340 -21 c0 -5 -4 -10 -9
-10 -6 0 -13 5 -16 10 -3 6 1 10 9 10 9 0 16 -4 16 -10z m-260 -116 c0 -9 -9
-13 -26 -12 -32 3 -45 18 -37 46 l5 22 29 -21 c16 -11 29 -27 29 -35z m-30
-54 c0 -5 -4 -10 -9 -10 -6 0 -13 5 -16 10 -3 6 1 10 9 10 9 0 16 -4 16 -10z
m680 -21 c0 -11 -27 -12 -34 0 -3 4 -3 11 0 14 8 8 34 -3 34 -14z m80 -264 c0
-6 -11 -22 -25 -35 l-26 -24 -26 26 c-27 28 -24 44 11 57 24 9 66 -6 66 -24z
m-521 -264 c1 -56 -2 -72 -10 -64 -6 6 -13 26 -15 45 -5 45 -12 60 -24 53 -16
-10 -12 0 10 25 11 13 21 35 21 49 3 54 17 -31 18 -108z m351 91 c0 -15 -2
-15 -10 -2 -13 20 -13 33 0 25 6 -3 10 -14 10 -23z m-340 -287 c0 -8 -4 -15
-9 -15 -5 0 -11 7 -15 15 -3 9 0 15 9 15 8 0 15 -7 15 -15z m0 -46 c0 -6 -4
-7 -10 -4 -5 3 -10 11 -10 16 0 6 5 7 10 4 6 -3 10 -11 10 -16z m5 -134 c1
-39 8 -63 23 -85 12 -16 22 -39 22 -50 0 -25 -27 -80 -39 -80 -15 0 -34 126
-24 157 5 15 6 46 2 68 -7 39 -3 62 9 51 3 -3 6 -31 7 -61z m70 -2 c-1 -21 -3
-44 -4 -51 -2 -23 -26 -7 -28 19 -2 27 18 80 28 73 3 -2 5 -21 4 -41z m295
-228 c0 -15 -6 -25 -14 -25 -24 0 -29 20 -10 35 25 19 24 19 24 -10z m446
-296 c9 -16 -18 -30 -33 -17 -7 6 -13 14 -13 19 0 13 38 11 46 -2z m-216 -64
c0 -12 -112 -115 -125 -115 -7 0 -15 -6 -18 -14 -3 -7 -20 -16 -39 -19 -18 -2
-59 -14 -92 -26 -62 -23 -70 -23 -60 2 6 16 139 107 156 107 5 0 25 11 46 23
55 35 132 59 132 42z m7 -177 c74 -37 86 -40 94 -26 8 15 25 16 69 1 13 -4 12
-6 -2 -14 -10 -6 -18 -17 -18 -26 0 -9 -3 -14 -6 -11 -3 4 -18 3 -34 -2 -20
-6 -35 -4 -49 7 -12 8 -25 11 -31 8 -5 -3 -28 8 -51 25 -23 16 -51 30 -63 30
-12 0 -28 5 -36 11 -13 9 -12 10 3 5 12 -4 17 0 17 14 0 28 10 26 107 -22z
m229 -56 c-13 -12 -41 15 -44 43 l-4 29 27 -33 c15 -17 24 -35 21 -39z m-617
39 l24 -18 -27 -7 c-26 -6 -66 7 -66 23 0 26 36 27 69 2z m301 -36 c20 -24 5
-28 -21 -6 -19 16 -20 20 -8 21 9 0 22 -7 29 -15z"/>
<path d="M9260 2116 c0 -2 7 -6 15 -10 8 -3 15 -1 15 4 0 6 -7 10 -15 10 -8 0
-15 -2 -15 -4z"/>
<path d="M8800 3052 c0 -5 12 -17 26 -27 17 -11 25 -13 22 -4 -5 16 -48 44
-48 31z"/>
<path d="M8450 2984 c18 -25 29 -48 26 -51 -3 -4 2 -16 13 -27 31 -35 35 -63
10 -76 -21 -12 -21 -12 10 -38 18 -15 37 -38 44 -52 12 -23 71 -70 89 -70 28
0 14 85 -20 120 -14 13 -14 15 1 18 21 4 13 52 -18 107 -39 68 -145 143 -145
103 0 -9 -3 -9 -12 0 -28 28 -27 9 2 -34z"/>
<path d="M3965 2986 c-20 -19 -44 -37 -53 -41 -11 -5 -13 -9 -5 -12 17 -6 91
34 103 56 23 43 3 42 -45 -3z"/>
<path d="M8716 3003 l-30 -16 23 -18 c24 -19 88 -36 98 -25 3 3 -1 14 -9 23
-8 10 -18 26 -21 36 -8 20 -22 20 -61 0z"/>
<path d="M8858 2940 c32 -30 52 -38 52 -21 0 14 -50 51 -68 51 -10 0 -4 -10
16 -30z"/>
<path d="M3853 2913 c-18 -9 -33 -20 -33 -25 0 -4 16 0 35 9 19 9 35 20 35 25
0 10 2 10 -37 -9z"/>
<path d="M9204 2835 c25 -19 36 -19 36 0 0 10 -10 15 -27 15 -27 -1 -27 -1 -9
-15z"/>
<path d="M8925 2820 c-3 -5 -1 -10 4 -10 6 0 11 5 11 10 0 6 -2 10 -4 10 -3 0
-8 -4 -11 -10z"/>
<path d="M3646 2713 c-7 -55 -2 -63 23 -37 15 17 16 22 4 33 -8 7 -12 19 -9
27 3 7 1 16 -3 18 -5 3 -11 -15 -15 -41z"/>
<path d="M8600 2580 c0 -6 7 -10 15 -10 8 0 15 2 15 4 0 2 -7 6 -15 10 -8 3
-15 1 -15 -4z"/>
<path d="M8410 2526 c0 -8 7 -16 15 -20 17 -6 18 -4 9 18 -8 20 -24 21 -24 2z"/>
<path d="M8255 2483 c14 -33 17 -63 7 -63 -5 0 -13 -12 -17 -27 -6 -26 -8 -26
-19 -10 -15 19 -26 22 -26 7 0 -5 14 -17 30 -25 19 -10 28 -20 24 -27 -12 -19
-11 -58 2 -58 6 0 19 -10 28 -22 l15 -23 20 22 c22 26 35 16 40 -32 2 -16 7
-38 12 -47 7 -13 6 -18 -3 -18 -7 0 4 -16 24 -35 24 -23 46 -35 64 -35 l28 0
-22 20 c-12 11 -26 20 -33 20 -16 0 -3 62 15 72 22 13 27 53 10 87 -9 18 -14
46 -12 62 4 24 -3 37 -31 67 -19 20 -32 29 -28 19 6 -15 4 -16 -16 -6 -12 7
-38 25 -58 40 -42 33 -65 38 -54 12z"/>
<path d="M9326 2485 c4 -9 11 -14 16 -13 15 5 11 23 -6 26 -11 2 -14 -2 -10
-13z"/>
<path d="M9905 2310 c3 -5 8 -10 11 -10 2 0 4 5 4 10 0 6 -5 10 -11 10 -5 0
-7 -4 -4 -10z"/>
<path d="M8105 2279 c-4 -5 1 -17 11 -24 27 -20 36 -18 24 4 -13 26 -27 34
-35 20z"/>
<path d="M9721 2230 c0 -33 1 -34 10 -11 6 16 6 28 -1 35 -7 7 -10 -1 -9 -24z"/>
<path d="M8040 2233 c1 -10 30 -45 54 -63 16 -12 15 -8 -6 24 -23 37 -48 58
-48 39z"/>
<path d="M8467 2183 c3 -10 15 -29 25 -42 10 -13 18 -30 18 -37 0 -7 12 -27
28 -44 15 -16 45 -50 67 -75 39 -45 92 -82 102 -72 2 3 -13 23 -34 45 -32 33
-39 47 -37 74 3 41 -13 63 -33 47 -11 -10 -26 1 -78 55 -36 38 -62 60 -58 49z"/>
<path d="M7960 2161 c0 -13 29 -35 37 -28 7 8 -15 37 -28 37 -5 0 -9 -4 -9 -9z"/>
<path d="M9827 2103 c-15 -15 -6 -43 13 -43 11 0 20 6 20 14 0 17 -24 38 -33
29z"/>
<path d="M8377 2084 c-3 -3 -3 -12 0 -20 3 -8 0 -14 -6 -14 -16 0 6 -33 33
-51 26 -16 88 -20 78 -5 -4 6 -7 13 -7 16 -1 25 -84 87 -98 74z"/>
<path d="M7550 2045 c7 -9 15 -13 17 -11 7 7 -7 26 -19 26 -6 0 -6 -6 2 -15z"/>
<path d="M7610 2010 c8 -5 20 -10 25 -10 6 0 3 5 -5 10 -8 5 -19 10 -25 10 -5
0 -3 -5 5 -10z"/>
<path d="M7764 2001 c21 -23 26 -26 26 -11 0 5 -10 15 -22 21 -23 12 -23 12
-4 -10z"/>
<path d="M8330 1997 c0 -7 5 -18 12 -25 9 -9 6 -12 -15 -12 -29 0 -34 -9 -14
-29 10 -11 10 -14 0 -18 -18 -6 -16 -33 2 -33 9 0 12 6 9 15 -9 24 31 18 76
-10 22 -14 42 -25 45 -25 16 0 -1 27 -46 73 -42 43 -48 52 -33 57 17 6 17 7 0
13 -26 10 -36 9 -36 -6z"/>
<path d="M7655 1980 c3 -5 11 -10 16 -10 6 0 7 5 4 10 -3 6 -11 10 -16 10 -6
0 -7 -4 -4 -10z"/>
<path d="M8060 1942 c0 -12 57 -62 71 -62 5 0 9 -6 9 -14 0 -14 29 -31 37 -22
7 7 -21 46 -32 46 -6 0 -27 14 -48 31 -20 17 -37 26 -37 21z"/>
<path d="M8261 1867 c-9 -11 -5 -24 15 -61 31 -56 34 -58 74 -50 21 5 29 11
26 20 -3 8 -1 14 4 14 6 0 10 7 10 15 0 12 -44 40 -111 73 -3 1 -11 -4 -18
-11z"/>
<path d="M8696 1865 c4 -8 10 -15 15 -15 5 0 9 -7 9 -15 0 -8 5 -15 10 -15 15
0 12 27 -6 44 -20 20 -35 21 -28 1z"/>
<path d="M8113 1835 c-3 -9 2 -24 11 -34 11 -12 15 -27 11 -44 -5 -20 3 -34
48 -81 39 -39 63 -56 81 -56 14 0 26 5 26 10 0 20 -27 75 -43 89 -10 7 -17 22
-17 33 0 11 -14 27 -35 39 -20 12 -40 30 -46 40 -12 23 -28 24 -36 4z"/>
<path d="M8959 1779 c-15 -29 7 -71 35 -67 27 4 32 32 12 63 -20 31 -32 31
-47 4z"/>
<path d="M9850 1775 c0 -17 9 -29 30 -40 l31 -16 -7 28 c-13 54 -54 76 -54 28z"/>
<path d="M7830 1754 c0 -14 -4 -22 -10 -19 -5 3 -21 -5 -35 -19 -14 -15 -33
-26 -42 -26 -8 0 -36 -21 -62 -48 -52 -54 -54 -81 -11 -197 25 -68 29 -89 20
-106 -6 -10 -10 -43 -10 -73 0 -49 3 -58 33 -85 37 -36 82 -43 74 -12 -2 10
-1 25 3 32 7 10 11 10 24 0 10 -9 16 -10 16 -2 0 6 -25 35 -55 65 -52 51 -67
76 -46 76 5 0 23 -11 39 -25 17 -14 35 -25 40 -25 16 0 23 33 20 84 -2 36 -7
46 -20 46 -10 0 -18 -4 -18 -9 0 -5 -14 -6 -32 -2 -27 6 -34 13 -41 45 -14 57
19 69 68 25 28 -25 49 -11 36 24 -9 24 -8 27 14 33 14 3 33 3 42 -1 17 -6 17
-7 -1 -21 -19 -13 -19 -14 -1 -14 29 0 89 23 102 40 7 8 10 23 7 33 -5 17 -2
16 35 -5 30 -17 43 -20 52 -11 9 9 6 19 -12 45 -13 18 -25 36 -25 41 -1 4 -2
11 -3 16 0 5 -16 14 -33 21 -63 23 -79 34 -84 57 -4 13 -9 22 -11 19 -3 -3
-18 1 -34 9 -37 20 -39 19 -39 -11z m130 -124 c0 -15 -5 -12 -26 11 -19 22
-19 22 4 10 12 -6 22 -16 22 -21z m-180 -387 c0 -5 -5 -15 -10 -23 -8 -12 -10
-11 -10 8 0 12 5 22 10 22 6 0 10 -3 10 -7z"/>
<path d="M6915 1740 c3 -5 10 -10 16 -10 5 0 9 5 9 10 0 6 -7 10 -16 10 -8 0
-12 -4 -9 -10z"/>
<path d="M7676 1732 c-3 -6 3 -12 15 -15 12 -3 19 -1 16 6 -5 15 -24 20 -31 9z"/>
<path d="M8340 1729 c0 -10 40 -32 47 -25 3 2 2 9 -1 14 -8 13 -46 22 -46 11z"/>
<path d="M8725 1731 c-8 -15 3 -31 21 -31 9 0 14 7 12 17 -4 20 -24 28 -33 14z"/>
<path d="M7184 1636 c1 -90 9 -112 31 -82 15 19 24 18 63 -10 22 -17 22 -17
12 10 -5 14 -25 40 -44 56 -23 21 -35 42 -40 70 -11 69 -24 44 -22 -44z"/>
<path d="M6920 1695 c7 -9 15 -13 17 -11 7 7 -7 26 -19 26 -6 0 -6 -6 2 -15z"/>
<path d="M7507 1596 c-7 -18 1 -26 25 -26 22 0 24 26 2 34 -21 8 -21 8 -27 -8z"/>
<path d="M8460 1606 c0 -2 8 -10 18 -17 15 -13 16 -12 3 4 -13 16 -21 21 -21
13z"/>
<path d="M7323 1483 c9 -9 19 -14 23 -11 10 10 -6 28 -24 28 -15 0 -15 -1 1
-17z"/>
<path d="M8100 1466 c-14 -8 -28 -13 -31 -10 -6 4 -121 -13 -151 -22 -23 -7
-23 -24 -2 -24 14 0 14 -3 4 -15 -7 -8 -9 -15 -4 -16 45 -4 73 -13 96 -29 15
-11 34 -17 43 -14 9 4 25 -2 35 -11 28 -25 34 -13 10 18 -34 43 -22 53 18 14
40 -39 58 -47 48 -21 -5 13 -2 15 14 11 29 -7 24 13 -11 48 -24 23 -29 36 -25
57 6 32 -5 35 -44 14z"/>
<path d="M9954 1389 c-3 -6 -1 -16 5 -22 8 -8 11 -5 11 11 0 24 -5 28 -16 11z"/>
<path d="M7913 1335 c3 -11 8 -30 12 -42 3 -13 13 -23 21 -23 8 0 13 -4 10 -9
-3 -5 1 -22 9 -37 8 -16 15 -33 15 -39 1 -5 19 -22 40 -37 22 -15 40 -36 40
-46 0 -10 11 -29 25 -42 29 -28 26 -37 -7 -19 -32 18 -51 20 -59 7 -6 -9 -12
-8 -23 2 -23 18 -27 9 -16 -30 7 -25 6 -36 -3 -42 -9 -6 -5 -14 13 -30 14 -13
21 -20 16 -15 -6 4 -17 7 -25 7 -10 0 -7 -6 8 -17 33 -25 81 -76 81 -86 0 -5
-7 -6 -16 -3 -9 3 -24 6 -35 6 -10 0 -19 5 -19 11 0 6 7 8 16 5 9 -3 1 12 -18
35 -18 22 -39 51 -46 65 -17 31 -34 31 -26 -1 7 -29 -2 -32 -29 -7 -19 17 -20
16 -13 -11 4 -16 18 -39 31 -51 14 -13 25 -29 25 -36 0 -7 -3 -10 -7 -7 -3 4
-11 -3 -17 -15 -18 -34 -31 -32 -85 16 -28 25 -61 51 -73 57 -13 7 -46 32 -74
56 -54 46 -80 57 -48 21 17 -19 17 -21 2 -15 -10 3 -20 2 -23 -3 -3 -5 -13 -6
-23 -3 -12 5 -8 -3 11 -26 15 -19 26 -36 23 -38 -8 -8 -47 31 -68 70 -12 20
-28 37 -36 37 -19 0 -82 -30 -82 -40 0 -4 -17 -12 -39 -18 -46 -14 -54 -15
-46 -3 3 5 1 12 -4 15 -5 3 -7 24 -4 45 5 38 4 39 -18 34 -24 -5 -24 -5 -4 11
17 13 18 17 5 26 -11 7 -18 5 -26 -5 -6 -8 -15 -11 -20 -7 -4 4 -2 -1 6 -11
11 -15 11 -20 1 -27 -10 -6 -9 -10 5 -19 17 -11 16 -12 -8 -8 -16 2 -28 0 -28
-4 0 -5 7 -9 16 -9 8 0 12 -4 9 -10 -3 -5 -15 -10 -26 -10 -10 0 -19 -6 -19
-14 0 -17 -24 -28 -44 -20 -15 6 -19 -13 -31 -151 -3 -38 -8 -71 -11 -74 -2
-3 -18 3 -33 12 -37 22 -50 22 -44 -1 7 -28 -58 -28 -83 -1 -11 12 -18 24 -18
28 2 12 -41 51 -58 51 -23 0 -23 1 8 -59 24 -46 30 -51 60 -51 38 0 89 -38 98
-75 3 -13 16 -30 29 -37 21 -12 26 -13 55 -16 7 -1 12 -18 12 -44 0 -70 3 -82
19 -96 14 -12 14 -13 -1 -8 -24 7 -23 -6 1 -21 20 -13 35 -53 19 -53 -7 0 -7
-4 -1 -13 5 -6 10 -22 11 -35 1 -18 -3 -22 -19 -17 -17 6 -19 1 -19 -37 0 -54
6 -63 55 -82 22 -9 52 -31 66 -49 l26 -32 -37 3 c-36 4 -37 3 -34 -24 1 -16
-3 -32 -9 -36 -7 -4 307 -8 697 -8 l710 0 -42 31 c-40 29 -72 74 -72 100 0 6
9 0 21 -15 23 -29 39 -34 39 -11 0 8 7 15 15 15 14 0 14 3 0 30 -14 27 -5 44
10 20 3 -6 13 -10 22 -10 13 0 13 3 3 15 -7 8 -10 29 -7 47 3 24 -3 45 -20 76
-14 23 -29 42 -34 42 -13 0 -11 -14 3 -28 9 -9 8 -12 -5 -12 -15 0 -16 -3 -7
-21 6 -11 10 -25 7 -32 -2 -6 -22 16 -45 48 -58 83 -68 95 -81 95 -13 0 -13
-3 -2 -52 5 -21 6 -38 1 -38 -13 0 -40 36 -40 53 0 9 -6 17 -14 17 -8 0 -17 7
-20 16 -5 13 -2 15 14 11 11 -3 20 -1 20 5 0 5 -8 12 -19 15 -12 3 -17 11 -14
23 3 10 -1 21 -7 25 -9 5 -10 1 -6 -13 4 -11 2 -23 -4 -27 -6 -3 -8 -9 -6 -13
2 -4 -2 -16 -10 -26 -13 -18 -15 -18 -32 -3 -10 9 -24 17 -30 17 -14 0 -35 37
-24 44 5 3 15 -4 22 -15 28 -37 42 -22 20 21 -11 23 -18 45 -15 50 3 5 1 11
-5 15 -6 3 -10 18 -9 33 1 15 -2 35 -6 46 -7 16 -6 17 14 6 19 -10 25 -9 36 6
13 18 1 44 -19 41 -5 -1 -11 4 -13 11 -3 8 5 12 22 12 15 0 24 4 20 10 -9 14
8 13 23 -2 7 -7 13 -8 13 -2 1 5 2 16 3 24 0 8 9 16 19 18 20 4 50 -30 86 -98
26 -51 48 -77 56 -68 4 3 -1 20 -9 37 -9 16 -16 41 -16 55 0 14 -4 28 -10 31
-5 3 -10 15 -10 27 0 11 -15 38 -34 60 -31 36 -46 78 -47 133 0 11 -7 27 -15
36 -9 10 -16 24 -18 31 -1 8 -12 25 -24 38 -12 13 -21 29 -19 35 4 11 -30 82
-44 91 -5 3 -9 13 -9 22 0 9 -7 26 -15 36 -12 15 -17 17 -29 7 -17 -14 -36 -7
-36 13 0 8 7 19 15 26 13 10 13 15 1 32 -8 11 -26 26 -40 33 -22 12 -25 11
-28 -3 -2 -9 -11 -17 -21 -17 -24 0 -22 -19 3 -23 13 -2 27 -17 35 -35 8 -18
43 -58 79 -91 57 -51 65 -63 64 -92 -1 -41 -11 -43 -42 -9 l-24 26 2 -52 c1
-47 4 -54 30 -69 16 -9 32 -22 34 -29 6 -18 -77 40 -103 71 -11 13 -31 46 -45
73 -17 33 -34 52 -56 61 -36 15 -54 36 -36 42 8 2 5 13 -9 33 -25 36 -14 37
36 4 29 -21 40 -23 51 -14 12 10 7 15 -27 31 -23 10 -47 25 -53 33 -16 21
-109 85 -123 85 -6 0 -19 8 -29 17 -16 16 -16 16 -11 -2z m207 -358 c0 -5 -7
-4 -15 3 -8 6 -18 9 -23 6 -5 -3 -18 4 -28 17 -16 18 -16 19 -1 8 20 -16 22
-9 6 22 -8 16 -1 12 25 -12 20 -19 36 -39 36 -44z m-590 -7 c6 -11 9 -20 8
-20 -2 0 -11 9 -21 20 -9 11 -13 20 -7 20 5 0 14 -9 20 -20z m541 -41 c6 -11
8 -24 4 -27 -7 -7 -27 16 -46 51 -9 16 -8 17 10 8 11 -7 26 -21 32 -32z m-611
-19 c0 -5 -7 -10 -15 -10 -8 0 -15 5 -15 10 0 6 7 10 15 10 8 0 15 -4 15 -10z
m-110 -21 c0 -5 -6 -9 -14 -9 -7 0 -24 -8 -37 -18 -13 -10 -33 -22 -44 -26
-18 -6 -18 -5 -5 8 26 26 85 63 93 59 4 -2 7 -8 7 -14z m191 -65 c12 -14 11
-16 -5 -13 -11 2 -21 10 -24 17 -5 17 13 15 29 -4z m107 -33 c3 -9 -5 -7 -22
4 -14 10 -26 22 -26 27 0 13 43 -15 48 -31z m120 2 c4 -30 -9 -29 -39 3 l-24
26 30 -4 c22 -2 31 -9 33 -25z m181 -35 c6 -17 9 -33 7 -35 -9 -9 -46 38 -46
57 0 29 27 14 39 -22z m487 8 c10 -8 17 -17 14 -19 -3 -3 -16 3 -30 13 -29 22
-14 27 16 6z m-701 -84 c-7 -7 -45 29 -45 41 0 6 11 0 25 -13 14 -13 23 -26
20 -28z m105 -48 c0 -5 -3 -9 -7 -9 -5 0 -14 -4 -21 -9 -17 -10 -37 8 -27 23
8 13 56 9 55 -5z m-166 -80 c4 -9 4 -19 1 -22 -6 -6 -35 18 -35 29 0 16 28 10
34 -7z m91 -81 c-3 -8 -5 -26 -5 -39 0 -15 -6 -24 -15 -24 -8 0 -15 5 -15 10
0 21 -1 26 -16 48 -14 22 -14 25 2 44 18 20 19 20 37 -3 10 -12 15 -29 12 -36z
m560 -113 c17 -32 13 -50 -11 -50 -22 0 -17 -28 12 -66 15 -19 24 -37 21 -40
-3 -3 -16 11 -30 33 -13 21 -36 44 -51 52 -31 17 -34 41 -5 41 16 0 19 4 14
20 -15 47 27 55 50 10z m185 -63 c0 -5 -4 -5 -10 -2 -5 3 -10 14 -10 23 0 15
2 15 10 2 5 -8 10 -19 10 -23z m75 -107 c3 -5 1 -10 -4 -10 -6 0 -11 5 -11 10
0 6 2 10 4 10 3 0 8 -4 11 -10z m-315 -14 c0 -2 3 -11 6 -20 9 -23 -13 -20
-26 4 -9 16 -8 20 5 20 8 0 15 -2 15 -4z m-875 -86 c-3 -5 -13 -10 -21 -10 -8
0 -14 5 -14 10 0 6 9 10 21 10 11 0 17 -4 14 -10z m-31 -46 c16 -6 23 -34 8
-34 -10 0 -32 22 -32 32 0 10 3 10 24 2z"/>
<path d="M7463 1313 c-17 -15 -19 -23 -12 -50 5 -17 22 -41 38 -52 l28 -20 -2
24 c-2 13 -6 29 -10 34 -3 6 -1 11 5 11 6 0 9 4 6 9 -3 5 0 14 8 20 11 9 15 9
18 -1 4 -10 9 -10 23 2 17 14 16 15 -16 21 -19 4 -41 9 -50 13 -9 4 -24 -1
-36 -11z"/>
<path d="M9980 1299 c0 -15 6 -32 14 -38 16 -13 18 -60 4 -78 -7 -9 -3 -22 12
-43 28 -40 44 -39 36 3 -4 17 -8 41 -10 53 -1 11 -5 25 -9 31 -4 6 -5 18 -1
26 3 8 -6 27 -20 43 l-25 29 -1 -26z"/>
<path d="M10166 1311 c-7 -10 31 -61 45 -61 17 0 9 35 -11 53 -23 19 -27 20
-34 8z"/>
<path d="M2720 1238 c0 -14 58 -118 65 -118 5 0 -2 18 -34 83 -24 48 -31 56
-31 35z"/>
<path d="M10220 1180 c0 -19 7 -33 20 -40 17 -9 20 -8 20 14 0 35 -10 56 -26
56 -9 0 -14 -11 -14 -30z"/>
<path d="M6986 1148 c3 -4 11 -5 18 -2 9 3 13 -1 13 -11 -2 -19 28 -43 39 -32
11 11 -36 56 -56 54 -10 -1 -17 -5 -14 -9z"/>
<path d="M7694 1130 c26 -32 25 -60 -2 -60 -12 0 -13 -3 -5 -11 13 -13 113
-19 113 -8 0 14 -82 90 -106 100 l-26 9 26 -30z"/>
<path d="M10149 1108 c0 -2 -1 -22 -3 -45 -2 -44 2 -49 68 -73 25 -9 28 -14
24 -45 -3 -31 -1 -35 18 -35 19 0 22 6 22 38 0 24 -7 43 -20 56 -11 11 -18 26
-15 37 3 12 0 19 -9 19 -8 0 -14 5 -14 10 0 6 -6 10 -14 10 -7 0 -19 7 -26 15
-11 13 -29 20 -31 13z"/>
<path d="M10212 1098 c2 -6 17 -13 33 -15 25 -4 27 -2 15 11 -15 19 -54 22
-48 4z"/>
<path d="M6920 1076 c0 -2 8 -10 18 -17 15 -13 16 -12 3 4 -13 16 -21 21 -21
13z"/>
<path d="M9932 1050 c0 -14 2 -19 5 -12 2 6 2 18 0 25 -3 6 -5 1 -5 -13z"/>
<path d="M7646 1015 c9 -14 20 -25 24 -25 4 0 30 -20 58 -45 27 -25 57 -45 66
-45 16 0 23 -3 83 -32 30 -15 31 -15 25 1 -12 30 -86 119 -107 129 -12 5 -30
6 -44 0 -19 -6 -31 -3 -57 17 -18 14 -40 25 -49 25 -14 0 -14 -2 1 -25z"/>
<path d="M7190 1022 c0 -5 7 -9 15 -9 8 0 12 4 9 9 -3 4 -9 8 -15 8 -5 0 -9
-4 -9 -8z"/>
<path d="M9880 1002 c0 -5 7 -13 16 -16 10 -4 14 -1 12 6 -5 15 -28 23 -28 10z"/>
<path d="M8550 996 c0 -4 12 -22 26 -41 14 -18 26 -45 28 -59 3 -31 54 -106
72 -106 18 0 18 14 -1 30 -8 7 -15 18 -15 24 0 6 -8 16 -19 23 -10 6 -21 27
-25 46 -5 28 -66 105 -66 83z"/>
<path d="M10097 969 c6 -22 25 -33 44 -27 8 3 4 12 -11 26 -30 28 -40 28 -33
1z"/>
<path d="M9893 948 c-12 -19 -53 -40 -53 -28 0 5 -5 10 -11 10 -26 0 1 -25 30
-27 19 -2 30 1 26 7 -3 6 -2 10 4 10 5 0 11 -3 14 -7 2 -5 2 -2 1 5 -2 6 1 12
5 12 5 0 11 7 15 15 7 18 -20 20 -31 3z"/>
<path d="M6860 920 c0 -5 5 -10 11 -10 5 0 7 5 4 10 -3 6 -8 10 -11 10 -2 0
-4 -4 -4 -10z"/>
<path d="M8497 874 c5 -49 36 -73 50 -38 4 10 -5 27 -24 46 l-30 30 4 -38z"/>
<path d="M10220 875 l-25 -14 28 -1 c17 0 27 5 27 15 0 18 1 18 -30 0z"/>
<path d="M8975 783 c7 -20 11 -56 8 -80 -4 -37 -2 -42 12 -37 20 8 19 84 -2
127 -20 40 -33 33 -18 -10z"/>
<path d="M8520 802 c0 -6 9 -12 20 -15 11 -3 20 -3 20 -1 0 2 -9 8 -20 14 -11
6 -20 7 -20 2z"/>
<path d="M8572 733 c12 -44 31 -70 53 -70 26 0 16 35 -14 53 -17 10 -28 21
-26 25 3 4 -2 12 -10 19 -12 10 -12 6 -3 -27z"/>
<path d="M8660 747 c0 -8 9 -22 20 -32 19 -18 20 -17 20 1 0 20 -17 44 -32 44
-4 0 -8 -6 -8 -13z"/>
<path d="M6896 655 c-9 -14 -12 -25 -7 -25 5 0 16 11 25 25 9 14 12 25 7 25
-5 0 -16 -11 -25 -25z"/>
<path d="M8615 630 c3 -5 15 -10 26 -10 10 0 19 5 19 10 0 6 -12 10 -26 10
-14 0 -23 -4 -19 -10z"/>
<path d="M10017 549 c7 -7 15 -10 18 -7 3 3 -2 9 -12 12 -14 6 -15 5 -6 -5z"/>
<path d="M6915 520 c10 -11 20 -20 23 -20 3 0 -3 9 -13 20 -10 11 -20 20 -23
20 -3 0 3 -9 13 -20z"/>
<path d="M8940 487 c0 -7 5 -18 12 -25 9 -9 9 -12 0 -12 -9 0 -10 -5 -3 -18
12 -23 7 -75 -8 -80 -6 -2 -11 -12 -11 -22 0 -9 -7 -23 -15 -30 -8 -7 -15 -18
-15 -24 0 -7 -6 -24 -12 -39 -10 -22 -18 -26 -35 -22 -20 5 -23 1 -23 -25 0
-17 -6 -33 -14 -36 -7 -3 -12 -17 -12 -32 1 -15 -2 -32 -6 -38 -4 -5 -5 -27
-1 -47 l6 -37 54 0 c45 0 54 3 49 15 -6 16 38 88 48 78 12 -12 6 -41 -15 -67
l-20 -26 135 0 c75 0 136 2 136 4 0 2 -9 26 -21 53 -34 78 -71 203 -65 219 6
16 -59 94 -79 94 -13 0 -35 42 -35 68 0 21 -27 62 -41 62 -5 0 -9 -6 -9 -13z"/>
<path d="M6990 479 c0 -5 5 -7 10 -4 6 3 10 8 10 11 0 2 -4 4 -10 4 -5 0 -10
-5 -10 -11z"/>
<path d="M8523 405 c-1 -22 6 -40 19 -52 21 -18 21 -18 5 13 -16 31 -16 31 9
26 39 -7 26 25 -17 40 -11 5 -15 -2 -16 -27z"/>
<path d="M7100 390 c0 -5 7 -10 16 -10 8 0 12 5 9 10 -3 6 -10 10 -16 10 -5 0
-9 -4 -9 -10z"/>
<path d="M8632 388 c5 -15 28 -23 28 -10 0 5 -7 13 -16 16 -10 4 -14 1 -12 -6z"/>
<path d="M7110 360 c0 -5 5 -10 11 -10 5 0 7 5 4 10 -3 6 -8 10 -11 10 -2 0
-4 -4 -4 -10z"/>
<path d="M8565 320 c3 -5 8 -10 11 -10 2 0 4 5 4 10 0 6 -5 10 -11 10 -5 0 -7
-4 -4 -10z"/>
<path d="M10300 200 c0 -5 5 -10 10 -10 6 0 10 5 10 10 0 6 -4 10 -10 10 -5 0
-10 -4 -10 -10z"/>
<path d="M8645 80 c3 -5 8 -10 11 -10 2 0 4 5 4 10 0 6 -5 10 -11 10 -5 0 -7
-4 -4 -10z"/>
<path d="M7010 20 c0 -5 5 -10 11 -10 5 0 7 5 4 10 -3 6 -8 10 -11 10 -2 0 -4
-4 -4 -10z"/>
</g>
</svg>
